<?xml version="1.0" encoding="UTF-8" standalone="no"?>
<!DOCTYPE svg PUBLIC "-//W3C//DTD SVG 1.1//EN"
 "http://www.w3.org/Graphics/SVG/1.1/DTD/svg11.dtd">
<!-- Generated by graphviz version 2.38.0 (20140413.2041)
 -->
<!-- Title: G Pages: 1 -->
<svg width="779pt" height="618pt"
 viewBox="0.00 0.00 779.00 618.00" xmlns="http://www.w3.org/2000/svg" xmlns:xlink="http://www.w3.org/1999/xlink">
<g id="graph0" class="graph" transform="scale(1 1) rotate(0) translate(4 614)">
<title>G</title>
<polygon fill="white" stroke="none" points="-4,4 -4,-614 775,-614 775,4 -4,4"/>
<!-- diodechaos -->
<g id="node1" class="node"><title>diodechaos</title>
<path fill="none" stroke="black" d="M253,-431C253,-431 390,-431 390,-431 396,-431 402,-437 402,-443 402,-443 402,-488 402,-488 402,-494 396,-500 390,-500 390,-500 253,-500 253,-500 247,-500 241,-494 241,-488 241,-488 241,-443 241,-443 241,-437 247,-431 253,-431"/>
<text text-anchor="middle" x="251" y="-461.8" font-family="Times,serif" font-size="14.00"> </text>
<polyline fill="none" stroke="black" points="261,-431 261,-500 "/>
<text text-anchor="middle" x="318" y="-461.8" font-family="Times,serif" font-size="14.00">DIODE CHAOS</text>
<polyline fill="none" stroke="black" points="375,-431 375,-500 "/>
<text text-anchor="middle" x="388.5" y="-484.8" font-family="Times,serif" font-size="14.00">X</text>
<polyline fill="none" stroke="black" points="375,-477 402,-477 "/>
<text text-anchor="middle" x="388.5" y="-461.8" font-family="Times,serif" font-size="14.00">Y</text>
<polyline fill="none" stroke="black" points="375,-454 402,-454 "/>
<text text-anchor="middle" x="388.5" y="-438.8" font-family="Times,serif" font-size="14.00">Z</text>
</g>
<!-- triplewaveshaperplus -->
<g id="node13" class="node"><title>triplewaveshaperplus</title>
<path fill="none" stroke="black" d="M476,-341.5C476,-341.5 759,-341.5 759,-341.5 765,-341.5 771,-347.5 771,-353.5 771,-353.5 771,-467.5 771,-467.5 771,-473.5 765,-479.5 759,-479.5 759,-479.5 476,-479.5 476,-479.5 470,-479.5 464,-473.5 464,-467.5 464,-467.5 464,-353.5 464,-353.5 464,-347.5 470,-341.5 476,-341.5"/>
<text text-anchor="middle" x="504.5" y="-464.3" font-family="Times,serif" font-size="14.00">CH 1 CV 1</text>
<polyline fill="none" stroke="black" points="464,-456.5 545,-456.5 "/>
<text text-anchor="middle" x="504.5" y="-441.3" font-family="Times,serif" font-size="14.00">CH 1 CV 2</text>
<polyline fill="none" stroke="black" points="464,-433.5 545,-433.5 "/>
<text text-anchor="middle" x="504.5" y="-418.3" font-family="Times,serif" font-size="14.00">CH 2 CV 1</text>
<polyline fill="none" stroke="black" points="464,-410.5 545,-410.5 "/>
<text text-anchor="middle" x="504.5" y="-395.3" font-family="Times,serif" font-size="14.00">CH 2 CV 2</text>
<polyline fill="none" stroke="black" points="464,-387.5 545,-387.5 "/>
<text text-anchor="middle" x="504.5" y="-372.3" font-family="Times,serif" font-size="14.00">CH 3 CV 1</text>
<polyline fill="none" stroke="black" points="464,-364.5 545,-364.5 "/>
<text text-anchor="middle" x="504.5" y="-349.3" font-family="Times,serif" font-size="14.00">CH 3 CV 2</text>
<polyline fill="none" stroke="black" points="545,-341.5 545,-479.5 "/>
<text text-anchor="middle" x="648" y="-406.8" font-family="Times,serif" font-size="14.00">TRIPLE WAVESHAPER PLUS</text>
<polyline fill="none" stroke="black" points="751,-341.5 751,-479.5 "/>
<text text-anchor="middle" x="761" y="-406.8" font-family="Times,serif" font-size="14.00"> </text>
</g>
<!-- diodechaos&#45;&gt;triplewaveshaperplus -->
<g id="edge2" class="edge"><title>diodechaos:_x:e&#45;&gt;triplewaveshaperplus:_ch1cv1:w</title>
<path fill="none" stroke="purple" stroke-dasharray="5,2" d="M403.5,-488.5C403.5,-488.5 437.178,-477.367 454.28,-471.713"/>
<polygon fill="purple" stroke="purple" points="455.604,-474.962 464,-468.5 453.407,-468.316 455.604,-474.962"/>
</g>
<!-- diodechaos&#45;&gt;triplewaveshaperplus -->
<g id="edge5" class="edge"><title>diodechaos:_y:e&#45;&gt;triplewaveshaperplus:_ch2cv1:w</title>
<path fill="none" stroke="purple" stroke-dasharray="5,2" d="M403.5,-465.5C403.5,-465.5 439.327,-440.036 455.841,-428.299"/>
<polygon fill="purple" stroke="purple" points="457.877,-431.146 464,-422.5 453.821,-425.44 457.877,-431.146"/>
</g>
<!-- diodechaos&#45;&gt;triplewaveshaperplus -->
<g id="edge8" class="edge"><title>diodechaos:_z:e&#45;&gt;triplewaveshaperplus:_ch3cv1:w</title>
<path fill="none" stroke="purple" stroke-dasharray="5,2" d="M403.5,-442.5C403.5,-442.5 428,-421.5 428,-421.5 428,-421.5 447.415,-396.692 457.729,-383.513"/>
<polygon fill="purple" stroke="purple" points="460.593,-385.532 464,-375.5 455.081,-381.218 460.593,-385.532"/>
</g>
<!-- dplpg -->
<g id="node2" class="node"><title>dplpg</title>
<path fill="none" stroke="black" d="M564.5,-0.5C564.5,-0.5 670.5,-0.5 670.5,-0.5 676.5,-0.5 682.5,-6.5 682.5,-12.5 682.5,-12.5 682.5,-34.5 682.5,-34.5 682.5,-40.5 676.5,-46.5 670.5,-46.5 670.5,-46.5 564.5,-46.5 564.5,-46.5 558.5,-46.5 552.5,-40.5 552.5,-34.5 552.5,-34.5 552.5,-12.5 552.5,-12.5 552.5,-6.5 558.5,-0.5 564.5,-0.5"/>
<text text-anchor="middle" x="576" y="-31.3" font-family="Times,serif" font-size="14.00">CV 1</text>
<polyline fill="none" stroke="black" points="552.5,-23.5 599.5,-23.5 "/>
<text text-anchor="middle" x="576" y="-8.3" font-family="Times,serif" font-size="14.00">CV 2</text>
<polyline fill="none" stroke="black" points="599.5,-0.5 599.5,-46.5 "/>
<text text-anchor="middle" x="631" y="-19.8" font-family="Times,serif" font-size="14.00">DPLPG</text>
<polyline fill="none" stroke="black" points="662.5,-0.5 662.5,-46.5 "/>
<text text-anchor="middle" x="672.5" y="-19.8" font-family="Times,serif" font-size="14.00"> </text>
</g>
<!-- es8 -->
<g id="node3" class="node"><title>es8</title>
<path fill="none" stroke="black" d="M250.5,-65.5C250.5,-65.5 392.5,-65.5 392.5,-65.5 398.5,-65.5 404.5,-71.5 404.5,-77.5 404.5,-77.5 404.5,-99.5 404.5,-99.5 404.5,-105.5 398.5,-111.5 392.5,-111.5 392.5,-111.5 250.5,-111.5 250.5,-111.5 244.5,-111.5 238.5,-105.5 238.5,-99.5 238.5,-99.5 238.5,-77.5 238.5,-77.5 238.5,-71.5 244.5,-65.5 250.5,-65.5"/>
<text text-anchor="middle" x="260.5" y="-84.8" font-family="Times,serif" font-size="14.00">USB</text>
<polyline fill="none" stroke="black" points="282.5,-65.5 282.5,-111.5 "/>
<text text-anchor="middle" x="302.5" y="-84.8" font-family="Times,serif" font-size="14.00">ES8</text>
<polyline fill="none" stroke="black" points="322.5,-65.5 322.5,-111.5 "/>
<text text-anchor="middle" x="363.5" y="-96.3" font-family="Times,serif" font-size="14.00">OUT CH 5</text>
<polyline fill="none" stroke="black" points="322.5,-88.5 404.5,-88.5 "/>
<text text-anchor="middle" x="363.5" y="-73.3" font-family="Times,serif" font-size="14.00">OUT CH 6</text>
</g>
<!-- es8&#45;&gt;dplpg -->
<g id="edge14" class="edge"><title>es8:_outch5:e&#45;&gt;dplpg:_cv1:w</title>
<path fill="none" stroke="purple" stroke-dasharray="5,2" d="M405.5,-100.5C405.5,-100.5 464,-56.5 464,-56.5 464,-56.5 518.479,-43.425 541.463,-37.909"/>
<polygon fill="purple" stroke="purple" points="542.593,-41.2372 551.5,-35.5 540.959,-34.4304 542.593,-41.2372"/>
</g>
<!-- es8&#45;&gt;dplpg -->
<g id="edge15" class="edge"><title>es8:_outch5:e&#45;&gt;dplpg:_cv2:w</title>
<path fill="none" stroke="purple" stroke-dasharray="5,2" d="M405.5,-100.5C405.5,-100.5 464,-56.5 464,-56.5 464,-56.5 520.109,-27.6437 542.466,-16.1463"/>
<polygon fill="purple" stroke="purple" points="544.208,-19.186 551.5,-11.5 541.006,-12.961 544.208,-19.186"/>
</g>
<!-- optomix -->
<g id="node7" class="node"><title>optomix</title>
<path fill="none" stroke="black" d="M547,-209.5C547,-209.5 688,-209.5 688,-209.5 694,-209.5 700,-215.5 700,-221.5 700,-221.5 700,-243.5 700,-243.5 700,-249.5 694,-255.5 688,-255.5 688,-255.5 547,-255.5 547,-255.5 541,-255.5 535,-249.5 535,-243.5 535,-243.5 535,-221.5 535,-221.5 535,-215.5 541,-209.5 547,-209.5"/>
<text text-anchor="middle" x="567" y="-240.3" font-family="Times,serif" font-size="14.00">CTRL 1</text>
<polyline fill="none" stroke="black" points="535,-232.5 599,-232.5 "/>
<text text-anchor="middle" x="567" y="-217.3" font-family="Times,serif" font-size="14.00">CTRL 2</text>
<polyline fill="none" stroke="black" points="599,-209.5 599,-255.5 "/>
<text text-anchor="middle" x="639.5" y="-228.8" font-family="Times,serif" font-size="14.00">OPTOMIX</text>
<polyline fill="none" stroke="black" points="680,-209.5 680,-255.5 "/>
<text text-anchor="middle" x="690" y="-228.8" font-family="Times,serif" font-size="14.00"> </text>
</g>
<!-- es8&#45;&gt;optomix -->
<g id="edge11" class="edge"><title>es8:_outch5:e&#45;&gt;optomix:_ctrl1:w</title>
<path fill="none" stroke="purple" stroke-dasharray="5,2" d="M405.5,-100.5C405.5,-100.5 464,-199.5 464,-199.5 464,-199.5 506.419,-226.966 524.978,-238.982"/>
<polygon fill="purple" stroke="purple" points="523.204,-242.003 533.5,-244.5 527.008,-236.127 523.204,-242.003"/>
</g>
<!-- es8&#45;&gt;optomix -->
<g id="edge12" class="edge"><title>es8:_outch5:e&#45;&gt;optomix:_ctrl2:w</title>
<path fill="none" stroke="purple" stroke-dasharray="5,2" d="M405.5,-100.5C405.5,-100.5 464,-199.5 464,-199.5 464,-199.5 504.74,-211.81 523.836,-217.58"/>
<polygon fill="purple" stroke="purple" points="522.915,-220.958 533.5,-220.5 524.94,-214.257 522.915,-220.958"/>
</g>
<!-- particle -->
<g id="node8" class="node"><title>particle</title>
<path fill="none" stroke="black" d="M550,-154.5C550,-154.5 685,-154.5 685,-154.5 691,-154.5 697,-160.5 697,-166.5 697,-166.5 697,-178.5 697,-178.5 697,-184.5 691,-190.5 685,-190.5 685,-190.5 550,-190.5 550,-190.5 544,-190.5 538,-184.5 538,-178.5 538,-178.5 538,-166.5 538,-166.5 538,-160.5 544,-154.5 550,-154.5"/>
<text text-anchor="middle" x="564.5" y="-168.8" font-family="Times,serif" font-size="14.00">EXPR</text>
<polyline fill="none" stroke="black" points="591,-154.5 591,-190.5 "/>
<text text-anchor="middle" x="634" y="-168.8" font-family="Times,serif" font-size="14.00">PARTICLE</text>
<polyline fill="none" stroke="black" points="677,-154.5 677,-190.5 "/>
<text text-anchor="middle" x="687" y="-168.8" font-family="Times,serif" font-size="14.00"> </text>
</g>
<!-- es8&#45;&gt;particle -->
<g id="edge16" class="edge"><title>es8:_outch6:e&#45;&gt;particle:_expr:w</title>
<path fill="none" stroke="purple" stroke-dasharray="5,2" d="M405.5,-76.5C405.5,-76.5 464,-144.5 464,-144.5 464,-144.5 507.37,-161.25 527.022,-168.839"/>
<polygon fill="purple" stroke="purple" points="525.911,-172.162 536.5,-172.5 528.432,-165.632 525.911,-172.162"/>
</g>
<!-- prism -->
<g id="node10" class="node"><title>prism</title>
<path fill="none" stroke="black" d="M554,-66C554,-66 681,-66 681,-66 687,-66 693,-72 693,-78 693,-78 693,-123 693,-123 693,-129 687,-135 681,-135 681,-135 554,-135 554,-135 548,-135 542,-129 542,-123 542,-123 542,-78 542,-78 542,-72 548,-66 554,-66"/>
<text text-anchor="middle" x="578.5" y="-119.8" font-family="Times,serif" font-size="14.00">COMB</text>
<polyline fill="none" stroke="black" points="542,-112 615,-112 "/>
<text text-anchor="middle" x="578.5" y="-96.8" font-family="Times,serif" font-size="14.00">CUTOFF</text>
<polyline fill="none" stroke="black" points="542,-89 615,-89 "/>
<text text-anchor="middle" x="578.5" y="-73.8" font-family="Times,serif" font-size="14.00">RES</text>
<polyline fill="none" stroke="black" points="615,-66 615,-135 "/>
<text text-anchor="middle" x="644" y="-96.8" font-family="Times,serif" font-size="14.00">PRISM</text>
<polyline fill="none" stroke="black" points="673,-66 673,-135 "/>
<text text-anchor="middle" x="683" y="-96.8" font-family="Times,serif" font-size="14.00"> </text>
</g>
<!-- es8&#45;&gt;prism -->
<g id="edge13" class="edge"><title>es8:_outch5:e&#45;&gt;prism:_cutoff:w</title>
<path fill="none" stroke="purple" stroke-dasharray="5,2" d="M405.5,-100.5C405.5,-100.5 498.957,-100.5 530.353,-100.5"/>
<polygon fill="purple" stroke="purple" points="530.5,-104 540.5,-100.5 530.5,-97.0001 530.5,-104"/>
</g>
<!-- es8&#45;&gt;prism -->
<g id="edge19" class="edge"><title>es8:_outch5:e&#45;&gt;prism:_res:w</title>
<path fill="none" stroke="purple" stroke-dasharray="5,2" d="M405.5,-100.5C405.5,-100.5 498.957,-84.5777 530.353,-79.2287"/>
<polygon fill="purple" stroke="purple" points="531.23,-82.6299 540.5,-77.5 530.054,-75.7293 531.23,-82.6299"/>
</g>
<!-- fixedsinebank -->
<g id="node4" class="node"><title>fixedsinebank</title>
<path fill="none" stroke="black" d="M227,-539.5C227,-539.5 416,-539.5 416,-539.5 422,-539.5 428,-545.5 428,-551.5 428,-551.5 428,-573.5 428,-573.5 428,-579.5 422,-585.5 416,-585.5 416,-585.5 227,-585.5 227,-585.5 221,-585.5 215,-579.5 215,-573.5 215,-573.5 215,-551.5 215,-551.5 215,-545.5 221,-539.5 227,-539.5"/>
<text text-anchor="middle" x="225" y="-558.8" font-family="Times,serif" font-size="14.00"> </text>
<polyline fill="none" stroke="black" points="235,-539.5 235,-585.5 "/>
<text text-anchor="middle" x="303" y="-558.8" font-family="Times,serif" font-size="14.00">FIXED SINE BANK</text>
<polyline fill="none" stroke="black" points="371,-539.5 371,-585.5 "/>
<text text-anchor="middle" x="399.5" y="-570.3" font-family="Times,serif" font-size="14.00">OUT 1</text>
<polyline fill="none" stroke="black" points="371,-562.5 428,-562.5 "/>
<text text-anchor="middle" x="399.5" y="-547.3" font-family="Times,serif" font-size="14.00">OUT 2</text>
</g>
<!-- nebulae -->
<g id="node5" class="node"><title>nebulae</title>
<path fill="none" stroke="black" d="M538.5,-498.5C538.5,-498.5 696.5,-498.5 696.5,-498.5 702.5,-498.5 708.5,-504.5 708.5,-510.5 708.5,-510.5 708.5,-532.5 708.5,-532.5 708.5,-538.5 702.5,-544.5 696.5,-544.5 696.5,-544.5 538.5,-544.5 538.5,-544.5 532.5,-544.5 526.5,-538.5 526.5,-532.5 526.5,-532.5 526.5,-510.5 526.5,-510.5 526.5,-504.5 532.5,-498.5 538.5,-498.5"/>
<text text-anchor="middle" x="566" y="-529.3" font-family="Times,serif" font-size="14.00">BLEND</text>
<polyline fill="none" stroke="black" points="526.5,-521.5 605.5,-521.5 "/>
<text text-anchor="middle" x="566" y="-506.3" font-family="Times,serif" font-size="14.00">WINDOW</text>
<polyline fill="none" stroke="black" points="605.5,-498.5 605.5,-544.5 "/>
<text text-anchor="middle" x="647" y="-517.8" font-family="Times,serif" font-size="14.00">NEBULAE</text>
<polyline fill="none" stroke="black" points="688.5,-498.5 688.5,-544.5 "/>
<text text-anchor="middle" x="698.5" y="-517.8" font-family="Times,serif" font-size="14.00"> </text>
</g>
<!-- fixedsinebank&#45;&gt;nebulae -->
<g id="edge21" class="edge"><title>fixedsinebank:_out2:e&#45;&gt;nebulae:_window:w</title>
<path fill="none" stroke="purple" stroke-dasharray="5,2" d="M428,-550.5C428,-550.5 491.748,-523.693 516.151,-513.431"/>
<polygon fill="purple" stroke="purple" points="517.639,-516.603 525.5,-509.5 514.925,-510.15 517.639,-516.603"/>
</g>
<!-- qpas -->
<g id="node11" class="node"><title>qpas</title>
<path fill="none" stroke="black" d="M547,-563.5C547,-563.5 688,-563.5 688,-563.5 694,-563.5 700,-569.5 700,-575.5 700,-575.5 700,-597.5 700,-597.5 700,-603.5 694,-609.5 688,-609.5 688,-609.5 547,-609.5 547,-609.5 541,-609.5 535,-603.5 535,-597.5 535,-597.5 535,-575.5 535,-575.5 535,-569.5 541,-563.5 547,-563.5"/>
<text text-anchor="middle" x="581" y="-594.3" font-family="Times,serif" font-size="14.00">RADIATE L</text>
<polyline fill="none" stroke="black" points="535,-586.5 627,-586.5 "/>
<text text-anchor="middle" x="581" y="-571.3" font-family="Times,serif" font-size="14.00">RADIATE R</text>
<polyline fill="none" stroke="black" points="627,-563.5 627,-609.5 "/>
<text text-anchor="middle" x="653.5" y="-582.8" font-family="Times,serif" font-size="14.00">QPAS</text>
<polyline fill="none" stroke="black" points="680,-563.5 680,-609.5 "/>
<text text-anchor="middle" x="690" y="-582.8" font-family="Times,serif" font-size="14.00"> </text>
</g>
<!-- fixedsinebank&#45;&gt;qpas -->
<g id="edge17" class="edge"><title>fixedsinebank:_out1:e&#45;&gt;qpas:_radiatel:w</title>
<path fill="none" stroke="purple" stroke-dasharray="5,2" d="M428,-574.5C428,-574.5 496.978,-590.192 523.384,-596.199"/>
<polygon fill="purple" stroke="purple" points="522.973,-599.695 533.5,-598.5 524.526,-592.869 522.973,-599.695"/>
</g>
<!-- ochd -->
<g id="node6" class="node"><title>ochd</title>
<path fill="none" stroke="black" d="M265,-228.5C265,-228.5 378,-228.5 378,-228.5 384,-228.5 390,-234.5 390,-240.5 390,-240.5 390,-400.5 390,-400.5 390,-406.5 384,-412.5 378,-412.5 378,-412.5 265,-412.5 265,-412.5 259,-412.5 253,-406.5 253,-400.5 253,-400.5 253,-240.5 253,-240.5 253,-234.5 259,-228.5 265,-228.5"/>
<text text-anchor="middle" x="263" y="-316.8" font-family="Times,serif" font-size="14.00"> </text>
<polyline fill="none" stroke="black" points="273,-228.5 273,-412.5 "/>
<text text-anchor="middle" x="302" y="-316.8" font-family="Times,serif" font-size="14.00">OCHD</text>
<polyline fill="none" stroke="black" points="331,-228.5 331,-412.5 "/>
<text text-anchor="middle" x="360.5" y="-397.3" font-family="Times,serif" font-size="14.00">OUT 1</text>
<polyline fill="none" stroke="black" points="331,-389.5 390,-389.5 "/>
<text text-anchor="middle" x="360.5" y="-374.3" font-family="Times,serif" font-size="14.00">OUT 2</text>
<polyline fill="none" stroke="black" points="331,-366.5 390,-366.5 "/>
<text text-anchor="middle" x="360.5" y="-351.3" font-family="Times,serif" font-size="14.00">OUT 3</text>
<polyline fill="none" stroke="black" points="331,-343.5 390,-343.5 "/>
<text text-anchor="middle" x="360.5" y="-328.3" font-family="Times,serif" font-size="14.00">OUT 4</text>
<polyline fill="none" stroke="black" points="331,-320.5 390,-320.5 "/>
<text text-anchor="middle" x="360.5" y="-305.3" font-family="Times,serif" font-size="14.00">OUT 5</text>
<polyline fill="none" stroke="black" points="331,-297.5 390,-297.5 "/>
<text text-anchor="middle" x="360.5" y="-282.3" font-family="Times,serif" font-size="14.00">OUT 6</text>
<polyline fill="none" stroke="black" points="331,-274.5 390,-274.5 "/>
<text text-anchor="middle" x="360.5" y="-259.3" font-family="Times,serif" font-size="14.00">OUT 7</text>
<polyline fill="none" stroke="black" points="331,-251.5 390,-251.5 "/>
<text text-anchor="middle" x="360.5" y="-236.3" font-family="Times,serif" font-size="14.00">OUT 8</text>
</g>
<!-- ochd&#45;&gt;nebulae -->
<g id="edge1" class="edge"><title>ochd:_out7:e&#45;&gt;nebulae:_blend:w</title>
<path fill="none" stroke="purple" stroke-dasharray="5,2" d="M391.5,-262.5C391.5,-262.5 464,-489.5 464,-489.5 464,-489.5 500.419,-515.556 517.206,-527.566"/>
<polygon fill="purple" stroke="purple" points="515.331,-530.528 525.5,-533.5 519.404,-524.835 515.331,-530.528"/>
</g>
<!-- performancemixer -->
<g id="node9" class="node"><title>performancemixer</title>
<path fill="none" stroke="black" d="M494.5,-274.5C494.5,-274.5 740.5,-274.5 740.5,-274.5 746.5,-274.5 752.5,-280.5 752.5,-286.5 752.5,-286.5 752.5,-308.5 752.5,-308.5 752.5,-314.5 746.5,-320.5 740.5,-320.5 740.5,-320.5 494.5,-320.5 494.5,-320.5 488.5,-320.5 482.5,-314.5 482.5,-308.5 482.5,-308.5 482.5,-286.5 482.5,-286.5 482.5,-280.5 488.5,-274.5 494.5,-274.5"/>
<text text-anchor="middle" x="522.5" y="-305.3" font-family="Times,serif" font-size="14.00">CH 1 PAN</text>
<polyline fill="none" stroke="black" points="482.5,-297.5 562.5,-297.5 "/>
<text text-anchor="middle" x="522.5" y="-282.3" font-family="Times,serif" font-size="14.00">CH 2 PAN</text>
<polyline fill="none" stroke="black" points="562.5,-274.5 562.5,-320.5 "/>
<text text-anchor="middle" x="647.5" y="-293.8" font-family="Times,serif" font-size="14.00">PERFORMANCE MIXER</text>
<polyline fill="none" stroke="black" points="732.5,-274.5 732.5,-320.5 "/>
<text text-anchor="middle" x="742.5" y="-293.8" font-family="Times,serif" font-size="14.00"> </text>
</g>
<!-- ochd&#45;&gt;performancemixer -->
<g id="edge4" class="edge"><title>ochd:_out5:e&#45;&gt;performancemixer:_ch1pan:w</title>
<path fill="none" stroke="purple" stroke-dasharray="5,2" d="M391.5,-308.5C391.5,-308.5 447.536,-309.123 471.176,-309.385"/>
<polygon fill="purple" stroke="purple" points="471.462,-312.889 481.5,-309.5 471.54,-305.889 471.462,-312.889"/>
</g>
<!-- ochd&#45;&gt;performancemixer -->
<g id="edge7" class="edge"><title>ochd:_out6:e&#45;&gt;performancemixer:_ch2pan:w</title>
<path fill="none" stroke="purple" stroke-dasharray="5,2" d="M391.5,-285.5C391.5,-285.5 447.536,-285.5 471.176,-285.5"/>
<polygon fill="purple" stroke="purple" points="471.5,-289 481.5,-285.5 471.5,-282 471.5,-289"/>
</g>
<!-- ochd&#45;&gt;prism -->
<g id="edge10" class="edge"><title>ochd:_out4:e&#45;&gt;prism:_comb:w</title>
<path fill="none" stroke="purple" stroke-dasharray="5,2" d="M391.5,-332.5C391.5,-332.5 464,-144.5 464,-144.5 464,-144.5 510.226,-131.81 530.811,-126.16"/>
<polygon fill="purple" stroke="purple" points="531.783,-129.522 540.5,-123.5 529.93,-122.772 531.783,-129.522"/>
</g>
<!-- ochd&#45;&gt;qpas -->
<g id="edge18" class="edge"><title>ochd:_out8:e&#45;&gt;qpas:_radiater:w</title>
<path fill="none" stroke="purple" stroke-dasharray="5,2" d="M391.5,-239.5C391.5,-239.5 464,-554.5 464,-554.5 464,-554.5 504.74,-566.224 523.836,-571.719"/>
<polygon fill="purple" stroke="purple" points="522.922,-575.098 533.5,-574.5 524.858,-568.371 522.922,-575.098"/>
</g>
<!-- ochd&#45;&gt;triplewaveshaperplus -->
<g id="edge3" class="edge"><title>ochd:_out1:e&#45;&gt;triplewaveshaperplus:_ch1cv2:w</title>
<path fill="none" stroke="purple" stroke-dasharray="5,2" d="M391.5,-401.5C391.5,-401.5 428,-421.5 428,-421.5 428,-421.5 445.016,-432.844 455.65,-439.934"/>
<polygon fill="purple" stroke="purple" points="453.738,-442.865 464,-445.5 457.621,-437.041 453.738,-442.865"/>
</g>
<!-- ochd&#45;&gt;triplewaveshaperplus -->
<g id="edge6" class="edge"><title>ochd:_out2:e&#45;&gt;triplewaveshaperplus:_ch2cv2:w</title>
<path fill="none" stroke="purple" stroke-dasharray="5,2" d="M391.5,-378.5C391.5,-378.5 434.433,-390.344 454.222,-395.803"/>
<polygon fill="purple" stroke="purple" points="453.429,-399.215 464,-398.5 455.291,-392.467 453.429,-399.215"/>
</g>
<!-- ochd&#45;&gt;triplewaveshaperplus -->
<g id="edge9" class="edge"><title>ochd:_out3:e&#45;&gt;triplewaveshaperplus:_ch3cv2:w</title>
<path fill="none" stroke="purple" stroke-dasharray="5,2" d="M391.5,-355.5C391.5,-355.5 433.998,-353.741 453.919,-352.917"/>
<polygon fill="purple" stroke="purple" points="454.153,-356.411 464,-352.5 453.864,-349.417 454.153,-356.411"/>
</g>
<!-- raspberrypi -->
<g id="node12" class="node"><title>raspberrypi</title>
<path fill="none" stroke="black" d="M12,-70.5C12,-70.5 167,-70.5 167,-70.5 173,-70.5 179,-76.5 179,-82.5 179,-82.5 179,-94.5 179,-94.5 179,-100.5 173,-106.5 167,-106.5 167,-106.5 12,-106.5 12,-106.5 6,-106.5 0,-100.5 0,-94.5 0,-94.5 0,-82.5 0,-82.5 0,-76.5 6,-70.5 12,-70.5"/>
<text text-anchor="middle" x="10" y="-84.8" font-family="Times,serif" font-size="14.00"> </text>
<polyline fill="none" stroke="black" points="20,-70.5 20,-106.5 "/>
<text text-anchor="middle" x="77.5" y="-84.8" font-family="Times,serif" font-size="14.00">RASPBERRY PI</text>
<polyline fill="none" stroke="black" points="135,-70.5 135,-106.5 "/>
<text text-anchor="middle" x="157" y="-84.8" font-family="Times,serif" font-size="14.00">USB</text>
</g>
<!-- raspberrypi&#45;&gt;es8 -->
<g id="edge20" class="edge"><title>raspberrypi:_usb:e&#45;&gt;es8:_usb:w</title>
<path fill="none" stroke="black" stroke-width="2" d="M179,-88.5C179,-88.5 210.549,-88.5 227.31,-88.5"/>
<polygon fill="black" stroke="black" stroke-width="2" points="227.5,-92.0001 237.5,-88.5 227.5,-85.0001 227.5,-92.0001"/>
</g>
</g>
</svg>
