<?xml version="1.0" encoding="UTF-8" standalone="no"?>
<!DOCTYPE svg PUBLIC "-//W3C//DTD SVG 1.1//EN"
 "http://www.w3.org/Graphics/SVG/1.1/DTD/svg11.dtd">
<!-- Generated by graphviz version 2.38.0 (20140413.2041)
 -->
<!-- Title: G Pages: 1 -->
<svg width="3618pt" height="326pt"
 viewBox="0.00 0.00 3618.00 326.00" xmlns="http://www.w3.org/2000/svg" xmlns:xlink="http://www.w3.org/1999/xlink">
<g id="graph0" class="graph" transform="scale(1 1) rotate(0) translate(4 322)">
<title>G</title>
<polygon fill="white" stroke="none" points="-4,4 -4,-322 3614,-322 3614,4 -4,4"/>
<!-- boomerangiii -->
<g id="node1" class="node"><title>boomerangiii</title>
<path fill="none" stroke="black" d="M2896,-145.5C2896,-145.5 3075,-145.5 3075,-145.5 3081,-145.5 3087,-151.5 3087,-157.5 3087,-157.5 3087,-169.5 3087,-169.5 3087,-175.5 3081,-181.5 3075,-181.5 3075,-181.5 2896,-181.5 2896,-181.5 2890,-181.5 2884,-175.5 2884,-169.5 2884,-169.5 2884,-157.5 2884,-157.5 2884,-151.5 2890,-145.5 2896,-145.5"/>
<text text-anchor="middle" x="2899.5" y="-159.8" font-family="Times,serif" font-size="14.00">IN</text>
<polyline fill="none" stroke="black" points="2915,-145.5 2915,-181.5 "/>
<text text-anchor="middle" x="2977.5" y="-159.8" font-family="Times,serif" font-size="14.00">BOOMERANG III</text>
<polyline fill="none" stroke="black" points="3040,-145.5 3040,-181.5 "/>
<text text-anchor="middle" x="3063.5" y="-159.8" font-family="Times,serif" font-size="14.00">OUT</text>
</g>
<!-- rnla -->
<g id="node20" class="node"><title>rnla</title>
<path fill="none" stroke="black" d="M3135,-145.5C3135,-145.5 3244,-145.5 3244,-145.5 3250,-145.5 3256,-151.5 3256,-157.5 3256,-157.5 3256,-169.5 3256,-169.5 3256,-175.5 3250,-181.5 3244,-181.5 3244,-181.5 3135,-181.5 3135,-181.5 3129,-181.5 3123,-175.5 3123,-169.5 3123,-169.5 3123,-157.5 3123,-157.5 3123,-151.5 3129,-145.5 3135,-145.5"/>
<text text-anchor="middle" x="3138.5" y="-159.8" font-family="Times,serif" font-size="14.00">IN</text>
<polyline fill="none" stroke="black" points="3154,-145.5 3154,-181.5 "/>
<text text-anchor="middle" x="3181.5" y="-159.8" font-family="Times,serif" font-size="14.00">RNLA</text>
<polyline fill="none" stroke="black" points="3209,-145.5 3209,-181.5 "/>
<text text-anchor="middle" x="3232.5" y="-159.8" font-family="Times,serif" font-size="14.00">OUT</text>
</g>
<!-- boomerangiii&#45;&gt;rnla -->
<g id="edge12" class="edge"><title>boomerangiii:_out:e&#45;&gt;rnla:_in:w</title>
<path fill="none" stroke="black" stroke-width="2" d="M3087,-163.5C3087,-163.5 3102.14,-163.5 3112.78,-163.5"/>
<polygon fill="black" stroke="black" stroke-width="2" points="3113,-167 3123,-163.5 3113,-160 3113,-167"/>
</g>
<!-- clusterflux -->
<g id="node2" class="node"><title>clusterflux</title>
<path fill="none" stroke="black" d="M1603.5,-78.5C1603.5,-78.5 1779.5,-78.5 1779.5,-78.5 1785.5,-78.5 1791.5,-84.5 1791.5,-90.5 1791.5,-90.5 1791.5,-102.5 1791.5,-102.5 1791.5,-108.5 1785.5,-114.5 1779.5,-114.5 1779.5,-114.5 1603.5,-114.5 1603.5,-114.5 1597.5,-114.5 1591.5,-108.5 1591.5,-102.5 1591.5,-102.5 1591.5,-90.5 1591.5,-90.5 1591.5,-84.5 1597.5,-78.5 1603.5,-78.5"/>
<text text-anchor="middle" x="1607" y="-92.8" font-family="Times,serif" font-size="14.00">IN</text>
<polyline fill="none" stroke="black" points="1622.5,-78.5 1622.5,-114.5 "/>
<text text-anchor="middle" x="1683.5" y="-92.8" font-family="Times,serif" font-size="14.00">CLUSTER FLUX</text>
<polyline fill="none" stroke="black" points="1744.5,-78.5 1744.5,-114.5 "/>
<text text-anchor="middle" x="1768" y="-92.8" font-family="Times,serif" font-size="14.00">OUT</text>
</g>
<!-- intrfxch1 -->
<g id="node11" class="node"><title>intrfxch1</title>
<path fill="none" stroke="black" d="M1227,-95.5C1227,-95.5 1466,-95.5 1466,-95.5 1472,-95.5 1478,-101.5 1478,-107.5 1478,-107.5 1478,-129.5 1478,-129.5 1478,-135.5 1472,-141.5 1466,-141.5 1466,-141.5 1227,-141.5 1227,-141.5 1221,-141.5 1215,-135.5 1215,-129.5 1215,-129.5 1215,-107.5 1215,-107.5 1215,-101.5 1221,-95.5 1227,-95.5"/>
<text text-anchor="middle" x="1255.5" y="-126.3" font-family="Times,serif" font-size="14.00">MOD SND</text>
<polyline fill="none" stroke="black" points="1215,-118.5 1296,-118.5 "/>
<text text-anchor="middle" x="1255.5" y="-103.3" font-family="Times,serif" font-size="14.00">PED RTN</text>
<polyline fill="none" stroke="black" points="1296,-95.5 1296,-141.5 "/>
<text text-anchor="middle" x="1346.5" y="-114.8" font-family="Times,serif" font-size="14.00">INTRFX CH 1</text>
<polyline fill="none" stroke="black" points="1397,-95.5 1397,-141.5 "/>
<text text-anchor="middle" x="1437.5" y="-126.3" font-family="Times,serif" font-size="14.00">MOD RTN</text>
<polyline fill="none" stroke="black" points="1397,-118.5 1478,-118.5 "/>
<text text-anchor="middle" x="1437.5" y="-103.3" font-family="Times,serif" font-size="14.00">PED SND</text>
</g>
<!-- clusterflux&#45;&gt;intrfxch1 -->
<g id="edge37" class="edge"><title>clusterflux:_out:e&#45;&gt;intrfxch1:_pedrtn:w</title>
<path fill="none" stroke="black" stroke-width="2" d="M1792.5,-96.5C1792.5,-96.5 1791.5,-115 1791.5,-115 1791.5,-115 1591.5,-115 1591.5,-115 1591.5,-115 1478,-95 1478,-95 1478,-95 1214.5,-95 1214.5,-95 1214.5,-95 1214.45,-95.5503 1214.38,-96.4101"/>
<polygon fill="black" stroke="black" stroke-width="2" points="1210.88,-96.2344 1213.5,-106.5 1217.85,-96.8408 1210.88,-96.2344"/>
</g>
<!-- coilervcf -->
<g id="node3" class="node"><title>coilervcf</title>
<path fill="none" stroke="black" d="M428,-150.5C428,-150.5 582,-150.5 582,-150.5 588,-150.5 594,-156.5 594,-162.5 594,-162.5 594,-174.5 594,-174.5 594,-180.5 588,-186.5 582,-186.5 582,-186.5 428,-186.5 428,-186.5 422,-186.5 416,-180.5 416,-174.5 416,-174.5 416,-162.5 416,-162.5 416,-156.5 422,-150.5 428,-150.5"/>
<text text-anchor="middle" x="431.5" y="-164.8" font-family="Times,serif" font-size="14.00">IN</text>
<polyline fill="none" stroke="black" points="447,-150.5 447,-186.5 "/>
<text text-anchor="middle" x="497" y="-164.8" font-family="Times,serif" font-size="14.00">COILER VCF</text>
<polyline fill="none" stroke="black" points="547,-150.5 547,-186.5 "/>
<text text-anchor="middle" x="570.5" y="-164.8" font-family="Times,serif" font-size="14.00">OUT</text>
</g>
<!-- triplewaveshaperplus -->
<g id="node24" class="node"><title>triplewaveshaperplus</title>
<path fill="none" stroke="black" d="M642,-134C642,-134 970,-134 970,-134 976,-134 982,-140 982,-146 982,-146 982,-191 982,-191 982,-197 976,-203 970,-203 970,-203 642,-203 642,-203 636,-203 630,-197 630,-191 630,-191 630,-146 630,-146 630,-140 636,-134 642,-134"/>
<text text-anchor="middle" x="662.5" y="-187.8" font-family="Times,serif" font-size="14.00">CH 1 IN</text>
<polyline fill="none" stroke="black" points="630,-180 695,-180 "/>
<text text-anchor="middle" x="662.5" y="-164.8" font-family="Times,serif" font-size="14.00">CH 2 IN</text>
<polyline fill="none" stroke="black" points="630,-157 695,-157 "/>
<text text-anchor="middle" x="662.5" y="-141.8" font-family="Times,serif" font-size="14.00">CH 3 IN</text>
<polyline fill="none" stroke="black" points="695,-134 695,-203 "/>
<text text-anchor="middle" x="798" y="-164.8" font-family="Times,serif" font-size="14.00">TRIPLE WAVESHAPER PLUS</text>
<polyline fill="none" stroke="black" points="901,-134 901,-203 "/>
<text text-anchor="middle" x="941.5" y="-187.8" font-family="Times,serif" font-size="14.00">CH 1 OUT</text>
<polyline fill="none" stroke="black" points="901,-180 982,-180 "/>
<text text-anchor="middle" x="941.5" y="-164.8" font-family="Times,serif" font-size="14.00">CH 2 OUT</text>
<polyline fill="none" stroke="black" points="901,-157 982,-157 "/>
<text text-anchor="middle" x="941.5" y="-141.8" font-family="Times,serif" font-size="14.00">CH 3 OUT</text>
</g>
<!-- coilervcf&#45;&gt;triplewaveshaperplus -->
<g id="edge2" class="edge"><title>coilervcf:_out:e&#45;&gt;triplewaveshaperplus:_ch1in:w</title>
<path fill="none" stroke="black" stroke-width="2" d="M594,-168.5C594,-168.5 610.631,-179.125 621.285,-185.932"/>
<polygon fill="black" stroke="black" stroke-width="2" points="619.689,-189.066 630,-191.5 623.457,-183.167 619.689,-189.066"/>
</g>
<!-- coilervcf&#45;&gt;triplewaveshaperplus -->
<g id="edge4" class="edge"><title>coilervcf:_out:e&#45;&gt;triplewaveshaperplus:_ch2in:w</title>
<path fill="none" stroke="black" stroke-width="2" d="M594,-168.5C594,-168.5 609.137,-168.5 619.78,-168.5"/>
<polygon fill="black" stroke="black" stroke-width="2" points="620,-172 630,-168.5 620,-165 620,-172"/>
</g>
<!-- coilervcf&#45;&gt;triplewaveshaperplus -->
<g id="edge5" class="edge"><title>coilervcf:_out:e&#45;&gt;triplewaveshaperplus:_ch3in:w</title>
<path fill="none" stroke="black" stroke-width="2" d="M594,-168.5C594,-168.5 610.631,-157.875 621.285,-151.068"/>
<polygon fill="black" stroke="black" stroke-width="2" points="623.457,-153.833 630,-145.5 619.689,-147.934 623.457,-153.833"/>
</g>
<!-- deluxememoryman -->
<g id="node4" class="node"><title>deluxememoryman</title>
<path fill="none" stroke="black" d="M1917,-0.5C1917,-0.5 2148,-0.5 2148,-0.5 2154,-0.5 2160,-6.5 2160,-12.5 2160,-12.5 2160,-24.5 2160,-24.5 2160,-30.5 2154,-36.5 2148,-36.5 2148,-36.5 1917,-36.5 1917,-36.5 1911,-36.5 1905,-30.5 1905,-24.5 1905,-24.5 1905,-12.5 1905,-12.5 1905,-6.5 1911,-0.5 1917,-0.5"/>
<text text-anchor="middle" x="1920.5" y="-14.8" font-family="Times,serif" font-size="14.00">IN</text>
<polyline fill="none" stroke="black" points="1936,-0.5 1936,-36.5 "/>
<text text-anchor="middle" x="2024.5" y="-14.8" font-family="Times,serif" font-size="14.00">DELUXE MEMORY MAN</text>
<polyline fill="none" stroke="black" points="2113,-0.5 2113,-36.5 "/>
<text text-anchor="middle" x="2136.5" y="-14.8" font-family="Times,serif" font-size="14.00">OUT</text>
</g>
<!-- intrfxch2 -->
<g id="node12" class="node"><title>intrfxch2</title>
<path fill="none" stroke="black" d="M1227,-30.5C1227,-30.5 1466,-30.5 1466,-30.5 1472,-30.5 1478,-36.5 1478,-42.5 1478,-42.5 1478,-64.5 1478,-64.5 1478,-70.5 1472,-76.5 1466,-76.5 1466,-76.5 1227,-76.5 1227,-76.5 1221,-76.5 1215,-70.5 1215,-64.5 1215,-64.5 1215,-42.5 1215,-42.5 1215,-36.5 1221,-30.5 1227,-30.5"/>
<text text-anchor="middle" x="1255.5" y="-61.3" font-family="Times,serif" font-size="14.00">MOD SND</text>
<polyline fill="none" stroke="black" points="1215,-53.5 1296,-53.5 "/>
<text text-anchor="middle" x="1255.5" y="-38.3" font-family="Times,serif" font-size="14.00">PED RTN</text>
<polyline fill="none" stroke="black" points="1296,-30.5 1296,-76.5 "/>
<text text-anchor="middle" x="1346.5" y="-49.8" font-family="Times,serif" font-size="14.00">INTRFX CH 2</text>
<polyline fill="none" stroke="black" points="1397,-30.5 1397,-76.5 "/>
<text text-anchor="middle" x="1437.5" y="-61.3" font-family="Times,serif" font-size="14.00">MOD RTN</text>
<polyline fill="none" stroke="black" points="1397,-53.5 1478,-53.5 "/>
<text text-anchor="middle" x="1437.5" y="-38.3" font-family="Times,serif" font-size="14.00">PED SND</text>
</g>
<!-- deluxememoryman&#45;&gt;intrfxch2 -->
<g id="edge38" class="edge"><title>deluxememoryman:_out:e&#45;&gt;intrfxch2:_pedrtn:w</title>
<path fill="none" stroke="black" stroke-width="2" d="M2161.5,-18.5C2161.5,-18.5 2160.5,-37 2160.5,-37 2160.5,-37 1905,-37 1905,-37 1905,-37 1869,-13.5 1869,-13.5 1869,-13.5 1514,-13.5 1514,-13.5 1514,-13.5 1214.5,-30 1214.5,-30 1214.5,-30 1214.45,-30.5503 1214.38,-31.4101"/>
<polygon fill="black" stroke="black" stroke-width="2" points="1210.88,-31.2344 1213.5,-41.5 1217.85,-31.8408 1210.88,-31.2344"/>
</g>
<!-- dplpg -->
<g id="node5" class="node"><title>dplpg</title>
<path fill="none" stroke="black" d="M2435.5,-200.5C2435.5,-200.5 2572.5,-200.5 2572.5,-200.5 2578.5,-200.5 2584.5,-206.5 2584.5,-212.5 2584.5,-212.5 2584.5,-234.5 2584.5,-234.5 2584.5,-240.5 2578.5,-246.5 2572.5,-246.5 2572.5,-246.5 2435.5,-246.5 2435.5,-246.5 2429.5,-246.5 2423.5,-240.5 2423.5,-234.5 2423.5,-234.5 2423.5,-212.5 2423.5,-212.5 2423.5,-206.5 2429.5,-200.5 2435.5,-200.5"/>
<text text-anchor="middle" x="2444" y="-231.3" font-family="Times,serif" font-size="14.00">IN 1</text>
<polyline fill="none" stroke="black" points="2423.5,-223.5 2464.5,-223.5 "/>
<text text-anchor="middle" x="2444" y="-208.3" font-family="Times,serif" font-size="14.00">IN 2</text>
<polyline fill="none" stroke="black" points="2464.5,-200.5 2464.5,-246.5 "/>
<text text-anchor="middle" x="2496" y="-219.8" font-family="Times,serif" font-size="14.00">DPLPG</text>
<polyline fill="none" stroke="black" points="2527.5,-200.5 2527.5,-246.5 "/>
<text text-anchor="middle" x="2556" y="-231.3" font-family="Times,serif" font-size="14.00">OUT 1</text>
<polyline fill="none" stroke="black" points="2527.5,-223.5 2584.5,-223.5 "/>
<text text-anchor="middle" x="2556" y="-208.3" font-family="Times,serif" font-size="14.00">OUT 2</text>
</g>
<!-- performancemixer -->
<g id="node16" class="node"><title>performancemixer</title>
<path fill="none" stroke="black" d="M1526,-133.5C1526,-133.5 1857,-133.5 1857,-133.5 1863,-133.5 1869,-139.5 1869,-145.5 1869,-145.5 1869,-305.5 1869,-305.5 1869,-311.5 1863,-317.5 1857,-317.5 1857,-317.5 1526,-317.5 1526,-317.5 1520,-317.5 1514,-311.5 1514,-305.5 1514,-305.5 1514,-145.5 1514,-145.5 1514,-139.5 1520,-133.5 1526,-133.5"/>
<text text-anchor="middle" x="1553.5" y="-302.3" font-family="Times,serif" font-size="14.00">CH 1</text>
<polyline fill="none" stroke="black" points="1514,-294.5 1593,-294.5 "/>
<text text-anchor="middle" x="1553.5" y="-279.3" font-family="Times,serif" font-size="14.00">CH 2</text>
<polyline fill="none" stroke="black" points="1514,-271.5 1593,-271.5 "/>
<text text-anchor="middle" x="1553.5" y="-256.3" font-family="Times,serif" font-size="14.00">CH 7 L</text>
<polyline fill="none" stroke="black" points="1514,-248.5 1593,-248.5 "/>
<text text-anchor="middle" x="1553.5" y="-233.3" font-family="Times,serif" font-size="14.00">CH 7 R</text>
<polyline fill="none" stroke="black" points="1514,-225.5 1593,-225.5 "/>
<text text-anchor="middle" x="1553.5" y="-210.3" font-family="Times,serif" font-size="14.00">CH 8 L</text>
<polyline fill="none" stroke="black" points="1514,-202.5 1593,-202.5 "/>
<text text-anchor="middle" x="1553.5" y="-187.3" font-family="Times,serif" font-size="14.00">CH 8 R</text>
<polyline fill="none" stroke="black" points="1514,-179.5 1593,-179.5 "/>
<text text-anchor="middle" x="1553.5" y="-164.3" font-family="Times,serif" font-size="14.00">FX RTN L</text>
<polyline fill="none" stroke="black" points="1514,-156.5 1593,-156.5 "/>
<text text-anchor="middle" x="1553.5" y="-141.3" font-family="Times,serif" font-size="14.00">FX RTN R</text>
<polyline fill="none" stroke="black" points="1593,-133.5 1593,-317.5 "/>
<text text-anchor="middle" x="1678" y="-221.8" font-family="Times,serif" font-size="14.00">PERFORMANCE MIXER</text>
<polyline fill="none" stroke="black" points="1763,-133.5 1763,-317.5 "/>
<text text-anchor="middle" x="1816" y="-283.3" font-family="Times,serif" font-size="14.00">FX SEND L</text>
<polyline fill="none" stroke="black" points="1763,-256.5 1869,-256.5 "/>
<text text-anchor="middle" x="1816" y="-222.3" font-family="Times,serif" font-size="14.00">FX SEND R</text>
<polyline fill="none" stroke="black" points="1763,-195.5 1869,-195.5 "/>
<text text-anchor="middle" x="1816" y="-160.8" font-family="Times,serif" font-size="14.00">PHONES OUT</text>
</g>
<!-- dplpg&#45;&gt;performancemixer -->
<g id="edge10" class="edge"><title>dplpg:_out1:e&#45;&gt;performancemixer:_fxrtnl:w</title>
<path fill="none" stroke="black" stroke-width="2" d="M2586,-235.5C2586,-235.5 2585,-247 2585,-247 2585,-247 2423.5,-247 2423.5,-247 2423.5,-247 1905,-225.5 1905,-225.5 1905,-225.5 1869,-133 1869,-133 1869,-133 1513.5,-133 1513.5,-133 1513.5,-133 1513.09,-147.159 1512.79,-157.335"/>
<polygon fill="black" stroke="black" stroke-width="2" points="1509.29,-157.403 1512.5,-167.5 1516.29,-157.606 1509.29,-157.403"/>
</g>
<!-- dplpg&#45;&gt;performancemixer -->
<g id="edge11" class="edge"><title>dplpg:_out2:e&#45;&gt;performancemixer:_fxrtnr:w</title>
<path fill="none" stroke="black" stroke-width="2" d="M2586,-211.5C2586,-211.5 2585,-200 2585,-200 2585,-200 1905,-191.5 1905,-191.5 1905,-191.5 1869,-133 1869,-133 1869,-133 1513.5,-133 1513.5,-133 1513.5,-133 1513.45,-133.55 1513.38,-134.41"/>
<polygon fill="black" stroke="black" stroke-width="2" points="1509.88,-134.234 1512.5,-144.5 1516.85,-134.841 1509.88,-134.234"/>
</g>
<!-- elcapistan -->
<g id="node6" class="node"><title>elcapistan</title>
<path fill="none" stroke="black" d="M2423,-145.5C2423,-145.5 2585,-145.5 2585,-145.5 2591,-145.5 2597,-151.5 2597,-157.5 2597,-157.5 2597,-169.5 2597,-169.5 2597,-175.5 2591,-181.5 2585,-181.5 2585,-181.5 2423,-181.5 2423,-181.5 2417,-181.5 2411,-175.5 2411,-169.5 2411,-169.5 2411,-157.5 2411,-157.5 2411,-151.5 2417,-145.5 2423,-145.5"/>
<text text-anchor="middle" x="2426.5" y="-159.8" font-family="Times,serif" font-size="14.00">IN</text>
<polyline fill="none" stroke="black" points="2442,-145.5 2442,-181.5 "/>
<text text-anchor="middle" x="2496" y="-159.8" font-family="Times,serif" font-size="14.00">EL CAPISTAN</text>
<polyline fill="none" stroke="black" points="2550,-145.5 2550,-181.5 "/>
<text text-anchor="middle" x="2573.5" y="-159.8" font-family="Times,serif" font-size="14.00">OUT</text>
</g>
<!-- infinitylooper -->
<g id="node10" class="node"><title>infinitylooper</title>
<path fill="none" stroke="black" d="M2645,-145.5C2645,-145.5 2836,-145.5 2836,-145.5 2842,-145.5 2848,-151.5 2848,-157.5 2848,-157.5 2848,-169.5 2848,-169.5 2848,-175.5 2842,-181.5 2836,-181.5 2836,-181.5 2645,-181.5 2645,-181.5 2639,-181.5 2633,-175.5 2633,-169.5 2633,-169.5 2633,-157.5 2633,-157.5 2633,-151.5 2639,-145.5 2645,-145.5"/>
<text text-anchor="middle" x="2648.5" y="-159.8" font-family="Times,serif" font-size="14.00">IN</text>
<polyline fill="none" stroke="black" points="2664,-145.5 2664,-181.5 "/>
<text text-anchor="middle" x="2732.5" y="-159.8" font-family="Times,serif" font-size="14.00">INFINITY LOOPER</text>
<polyline fill="none" stroke="black" points="2801,-145.5 2801,-181.5 "/>
<text text-anchor="middle" x="2824.5" y="-159.8" font-family="Times,serif" font-size="14.00">OUT</text>
</g>
<!-- elcapistan&#45;&gt;infinitylooper -->
<g id="edge13" class="edge"><title>elcapistan:_out:e&#45;&gt;infinitylooper:_in:w</title>
<path fill="none" stroke="black" stroke-width="2" d="M2597,-163.5C2597,-163.5 2612.14,-163.5 2622.78,-163.5"/>
<polygon fill="black" stroke="black" stroke-width="2" points="2623,-167 2633,-163.5 2623,-160 2623,-167"/>
</g>
<!-- es8 -->
<g id="node7" class="node"><title>es8</title>
<path fill="none" stroke="black" d="M227,-150.5C227,-150.5 368,-150.5 368,-150.5 374,-150.5 380,-156.5 380,-162.5 380,-162.5 380,-174.5 380,-174.5 380,-180.5 374,-186.5 368,-186.5 368,-186.5 227,-186.5 227,-186.5 221,-186.5 215,-180.5 215,-174.5 215,-174.5 215,-162.5 215,-162.5 215,-156.5 221,-150.5 227,-150.5"/>
<text text-anchor="middle" x="237" y="-164.8" font-family="Times,serif" font-size="14.00">USB</text>
<polyline fill="none" stroke="black" points="259,-150.5 259,-186.5 "/>
<text text-anchor="middle" x="279" y="-164.8" font-family="Times,serif" font-size="14.00">ES8</text>
<polyline fill="none" stroke="black" points="299,-150.5 299,-186.5 "/>
<text text-anchor="middle" x="339.5" y="-164.8" font-family="Times,serif" font-size="14.00">OUT CH 1</text>
</g>
<!-- es8&#45;&gt;coilervcf -->
<g id="edge14" class="edge"><title>es8:_outch1:e&#45;&gt;coilervcf:_in:w</title>
<path fill="none" stroke="black" stroke-width="2" d="M380,-168.5C380,-168.5 395.137,-168.5 405.78,-168.5"/>
<polygon fill="black" stroke="black" stroke-width="2" points="406,-172 416,-168.5 406,-165 406,-172"/>
</g>
<!-- freqout -->
<g id="node8" class="node"><title>freqout</title>
<path fill="none" stroke="black" d="M1623,-23.5C1623,-23.5 1760,-23.5 1760,-23.5 1766,-23.5 1772,-29.5 1772,-35.5 1772,-35.5 1772,-47.5 1772,-47.5 1772,-53.5 1766,-59.5 1760,-59.5 1760,-59.5 1623,-59.5 1623,-59.5 1617,-59.5 1611,-53.5 1611,-47.5 1611,-47.5 1611,-35.5 1611,-35.5 1611,-29.5 1617,-23.5 1623,-23.5"/>
<text text-anchor="middle" x="1626.5" y="-37.8" font-family="Times,serif" font-size="14.00">IN</text>
<polyline fill="none" stroke="black" points="1642,-23.5 1642,-59.5 "/>
<text text-anchor="middle" x="1683.5" y="-37.8" font-family="Times,serif" font-size="14.00">FREQOUT</text>
<polyline fill="none" stroke="black" points="1725,-23.5 1725,-59.5 "/>
<text text-anchor="middle" x="1748.5" y="-37.8" font-family="Times,serif" font-size="14.00">OUT</text>
</g>
<!-- freqout&#45;&gt;deluxememoryman -->
<g id="edge15" class="edge"><title>freqout:_out:e&#45;&gt;deluxememoryman:_in:w</title>
<path fill="none" stroke="black" stroke-width="2" d="M1773.5,-41.5C1773.5,-41.5 1864.53,-25.5777 1895.12,-20.2287"/>
<polygon fill="black" stroke="black" stroke-width="2" points="1895.75,-23.6706 1905,-18.5 1894.55,-16.7753 1895.75,-23.6706"/>
</g>
<!-- h9 -->
<g id="node9" class="node"><title>h9</title>
<path fill="none" stroke="black" d="M3304,-145.5C3304,-145.5 3393,-145.5 3393,-145.5 3399,-145.5 3405,-151.5 3405,-157.5 3405,-157.5 3405,-169.5 3405,-169.5 3405,-175.5 3399,-181.5 3393,-181.5 3393,-181.5 3304,-181.5 3304,-181.5 3298,-181.5 3292,-175.5 3292,-169.5 3292,-169.5 3292,-157.5 3292,-157.5 3292,-151.5 3298,-145.5 3304,-145.5"/>
<text text-anchor="middle" x="3307.5" y="-159.8" font-family="Times,serif" font-size="14.00">IN</text>
<polyline fill="none" stroke="black" points="3323,-145.5 3323,-181.5 "/>
<text text-anchor="middle" x="3340.5" y="-159.8" font-family="Times,serif" font-size="14.00">H9</text>
<polyline fill="none" stroke="black" points="3358,-145.5 3358,-181.5 "/>
<text text-anchor="middle" x="3381.5" y="-159.8" font-family="Times,serif" font-size="14.00">OUT</text>
</g>
<!-- scarlett18i8 -->
<g id="node21" class="node"><title>scarlett18i8</title>
<path fill="none" stroke="black" d="M3453,-145.5C3453,-145.5 3598,-145.5 3598,-145.5 3604,-145.5 3610,-151.5 3610,-157.5 3610,-157.5 3610,-169.5 3610,-169.5 3610,-175.5 3604,-181.5 3598,-181.5 3598,-181.5 3453,-181.5 3453,-181.5 3447,-181.5 3441,-175.5 3441,-169.5 3441,-169.5 3441,-157.5 3441,-157.5 3441,-151.5 3447,-145.5 3453,-145.5"/>
<text text-anchor="middle" x="3456.5" y="-159.8" font-family="Times,serif" font-size="14.00">IN</text>
<polyline fill="none" stroke="black" points="3472,-145.5 3472,-181.5 "/>
<text text-anchor="middle" x="3531" y="-159.8" font-family="Times,serif" font-size="14.00">SCARLETT 18I8</text>
<polyline fill="none" stroke="black" points="3590,-145.5 3590,-181.5 "/>
<text text-anchor="middle" x="3600" y="-159.8" font-family="Times,serif" font-size="14.00"> </text>
</g>
<!-- h9&#45;&gt;scarlett18i8 -->
<g id="edge16" class="edge"><title>h9:_out:e&#45;&gt;scarlett18i8:_in:w</title>
<path fill="none" stroke="black" stroke-width="2" d="M3405,-163.5C3405,-163.5 3420.14,-163.5 3430.78,-163.5"/>
<polygon fill="black" stroke="black" stroke-width="2" points="3431,-167 3441,-163.5 3431,-160 3431,-167"/>
</g>
<!-- infinitylooper&#45;&gt;boomerangiii -->
<g id="edge17" class="edge"><title>infinitylooper:_out:e&#45;&gt;boomerangiii:_in:w</title>
<path fill="none" stroke="black" stroke-width="2" d="M2848,-163.5C2848,-163.5 2863.14,-163.5 2873.78,-163.5"/>
<polygon fill="black" stroke="black" stroke-width="2" points="2874,-167 2884,-163.5 2874,-160 2874,-167"/>
</g>
<!-- intrfxch1&#45;&gt;clusterflux -->
<g id="edge18" class="edge"><title>intrfxch1:_pedsnd:e&#45;&gt;clusterflux:_in:w</title>
<path fill="none" stroke="black" stroke-width="2" d="M1478,-106.5C1478,-106.5 1552.98,-99.8348 1580.52,-97.3874"/>
<polygon fill="black" stroke="black" stroke-width="2" points="1580.85,-100.872 1590.5,-96.5 1580.23,-93.8992 1580.85,-100.872"/>
</g>
<!-- intrfxch1&#45;&gt;performancemixer -->
<g id="edge1" class="edge"><title>intrfxch1:_modrtn:e&#45;&gt;performancemixer:_ch1:w</title>
<path fill="none" stroke="black" stroke-width="2" d="M1478,-130.5C1478,-130.5 1504.35,-259.302 1511.96,-296.533"/>
<polygon fill="black" stroke="black" stroke-width="2" points="1508.57,-297.404 1514,-306.5 1515.42,-296.001 1508.57,-297.404"/>
</g>
<!-- intrfxch2&#45;&gt;freqout -->
<g id="edge19" class="edge"><title>intrfxch2:_pedsnd:e&#45;&gt;freqout:_in:w</title>
<path fill="none" stroke="black" stroke-width="2" d="M1478,-41.5C1478,-41.5 1568.18,-41.5 1599.18,-41.5"/>
<polygon fill="black" stroke="black" stroke-width="2" points="1599.5,-45.0001 1609.5,-41.5 1599.5,-38.0001 1599.5,-45.0001"/>
</g>
<!-- intrfxch2&#45;&gt;performancemixer -->
<g id="edge3" class="edge"><title>intrfxch2:_modrtn:e&#45;&gt;performancemixer:_ch2:w</title>
<path fill="none" stroke="black" stroke-width="2" d="M1478,-65.5C1478,-65.5 1505.32,-230.919 1512.36,-273.567"/>
<polygon fill="black" stroke="black" stroke-width="2" points="1508.92,-274.204 1514,-283.5 1515.82,-273.063 1508.92,-274.204"/>
</g>
<!-- nebulae -->
<g id="node13" class="node"><title>nebulae</title>
<path fill="none" stroke="black" d="M1265.5,-225.5C1265.5,-225.5 1427.5,-225.5 1427.5,-225.5 1433.5,-225.5 1439.5,-231.5 1439.5,-237.5 1439.5,-237.5 1439.5,-259.5 1439.5,-259.5 1439.5,-265.5 1433.5,-271.5 1427.5,-271.5 1427.5,-271.5 1265.5,-271.5 1265.5,-271.5 1259.5,-271.5 1253.5,-265.5 1253.5,-259.5 1253.5,-259.5 1253.5,-237.5 1253.5,-237.5 1253.5,-231.5 1259.5,-225.5 1265.5,-225.5"/>
<text text-anchor="middle" x="1275.5" y="-244.8" font-family="Times,serif" font-size="14.00">IN L</text>
<polyline fill="none" stroke="black" points="1297.5,-225.5 1297.5,-271.5 "/>
<text text-anchor="middle" x="1339" y="-244.8" font-family="Times,serif" font-size="14.00">NEBULAE</text>
<polyline fill="none" stroke="black" points="1380.5,-225.5 1380.5,-271.5 "/>
<text text-anchor="middle" x="1410" y="-256.3" font-family="Times,serif" font-size="14.00">OUT L</text>
<polyline fill="none" stroke="black" points="1380.5,-248.5 1439.5,-248.5 "/>
<text text-anchor="middle" x="1410" y="-233.3" font-family="Times,serif" font-size="14.00">OUT R</text>
</g>
<!-- nebulae&#45;&gt;performancemixer -->
<g id="edge6" class="edge"><title>nebulae:_outl:e&#45;&gt;performancemixer:_ch7l:w</title>
<path fill="none" stroke="black" stroke-width="2" d="M1440.5,-260.5C1440.5,-260.5 1483.58,-260.5 1503.78,-260.5"/>
<polygon fill="black" stroke="black" stroke-width="2" points="1504,-264 1514,-260.5 1504,-257 1504,-264"/>
</g>
<!-- nebulae&#45;&gt;performancemixer -->
<g id="edge7" class="edge"><title>nebulae:_outr:e&#45;&gt;performancemixer:_ch7r:w</title>
<path fill="none" stroke="black" stroke-width="2" d="M1440.5,-236.5C1440.5,-236.5 1483.58,-237.086 1503.78,-237.361"/>
<polygon fill="black" stroke="black" stroke-width="2" points="1503.95,-240.864 1514,-237.5 1504.05,-233.864 1503.95,-240.864"/>
</g>
<!-- optomix -->
<g id="node14" class="node"><title>optomix</title>
<path fill="none" stroke="black" d="M2208,-81.5C2208,-81.5 2363,-81.5 2363,-81.5 2369,-81.5 2375,-87.5 2375,-93.5 2375,-93.5 2375,-115.5 2375,-115.5 2375,-121.5 2369,-127.5 2363,-127.5 2363,-127.5 2208,-127.5 2208,-127.5 2202,-127.5 2196,-121.5 2196,-115.5 2196,-115.5 2196,-93.5 2196,-93.5 2196,-87.5 2202,-81.5 2208,-81.5"/>
<text text-anchor="middle" x="2216.5" y="-112.3" font-family="Times,serif" font-size="14.00">IN 1</text>
<polyline fill="none" stroke="black" points="2196,-104.5 2237,-104.5 "/>
<text text-anchor="middle" x="2216.5" y="-89.3" font-family="Times,serif" font-size="14.00">IN 2</text>
<polyline fill="none" stroke="black" points="2237,-81.5 2237,-127.5 "/>
<text text-anchor="middle" x="2277.5" y="-100.8" font-family="Times,serif" font-size="14.00">OPTOMIX</text>
<polyline fill="none" stroke="black" points="2318,-81.5 2318,-127.5 "/>
<text text-anchor="middle" x="2346.5" y="-112.3" font-family="Times,serif" font-size="14.00">OUT 1</text>
<polyline fill="none" stroke="black" points="2318,-104.5 2375,-104.5 "/>
<text text-anchor="middle" x="2346.5" y="-89.3" font-family="Times,serif" font-size="14.00">OUT 2</text>
</g>
<!-- optomix&#45;&gt;dplpg -->
<g id="edge24" class="edge"><title>optomix:_out1:e&#45;&gt;dplpg:_in1:w</title>
<path fill="none" stroke="black" stroke-width="2" d="M2375,-116.5C2375,-116.5 2407.23,-198.109 2418.31,-226.162"/>
<polygon fill="black" stroke="black" stroke-width="2" points="2415.07,-227.485 2422,-235.5 2421.58,-224.913 2415.07,-227.485"/>
</g>
<!-- optomix&#45;&gt;dplpg -->
<g id="edge27" class="edge"><title>optomix:_out2:e&#45;&gt;dplpg:_in2:w</title>
<path fill="none" stroke="black" stroke-width="2" d="M2375,-92.5C2375,-92.5 2411,-190.5 2411,-190.5 2411,-190.5 2414.29,-196.781 2417.27,-202.472"/>
<polygon fill="black" stroke="black" stroke-width="2" points="2414.26,-204.266 2422,-211.5 2420.46,-201.018 2414.26,-204.266"/>
</g>
<!-- particle -->
<g id="node15" class="node"><title>particle</title>
<path fill="none" stroke="black" d="M1962.5,-146.5C1962.5,-146.5 2102.5,-146.5 2102.5,-146.5 2108.5,-146.5 2114.5,-152.5 2114.5,-158.5 2114.5,-158.5 2114.5,-170.5 2114.5,-170.5 2114.5,-176.5 2108.5,-182.5 2102.5,-182.5 2102.5,-182.5 1962.5,-182.5 1962.5,-182.5 1956.5,-182.5 1950.5,-176.5 1950.5,-170.5 1950.5,-170.5 1950.5,-158.5 1950.5,-158.5 1950.5,-152.5 1956.5,-146.5 1962.5,-146.5"/>
<text text-anchor="middle" x="1966" y="-160.8" font-family="Times,serif" font-size="14.00">IN</text>
<polyline fill="none" stroke="black" points="1981.5,-146.5 1981.5,-182.5 "/>
<text text-anchor="middle" x="2024.5" y="-160.8" font-family="Times,serif" font-size="14.00">PARTICLE</text>
<polyline fill="none" stroke="black" points="2067.5,-146.5 2067.5,-182.5 "/>
<text text-anchor="middle" x="2091" y="-160.8" font-family="Times,serif" font-size="14.00">OUT</text>
</g>
<!-- thyme -->
<g id="node23" class="node"><title>thyme</title>
<path fill="none" stroke="black" d="M2224.5,-146.5C2224.5,-146.5 2346.5,-146.5 2346.5,-146.5 2352.5,-146.5 2358.5,-152.5 2358.5,-158.5 2358.5,-158.5 2358.5,-170.5 2358.5,-170.5 2358.5,-176.5 2352.5,-182.5 2346.5,-182.5 2346.5,-182.5 2224.5,-182.5 2224.5,-182.5 2218.5,-182.5 2212.5,-176.5 2212.5,-170.5 2212.5,-170.5 2212.5,-158.5 2212.5,-158.5 2212.5,-152.5 2218.5,-146.5 2224.5,-146.5"/>
<text text-anchor="middle" x="2228" y="-160.8" font-family="Times,serif" font-size="14.00">IN</text>
<polyline fill="none" stroke="black" points="2243.5,-146.5 2243.5,-182.5 "/>
<text text-anchor="middle" x="2277.5" y="-160.8" font-family="Times,serif" font-size="14.00">THYME</text>
<polyline fill="none" stroke="black" points="2311.5,-146.5 2311.5,-182.5 "/>
<text text-anchor="middle" x="2335" y="-160.8" font-family="Times,serif" font-size="14.00">OUT</text>
</g>
<!-- particle&#45;&gt;thyme -->
<g id="edge20" class="edge"><title>particle:_out:e&#45;&gt;thyme:_in:w</title>
<path fill="none" stroke="black" stroke-width="2" d="M2115.5,-164.5C2115.5,-164.5 2176.46,-164.5 2201.23,-164.5"/>
<polygon fill="black" stroke="black" stroke-width="2" points="2201.5,-168 2211.5,-164.5 2201.5,-161 2201.5,-168"/>
</g>
<!-- performancemixer&#45;&gt;particle -->
<g id="edge21" class="edge"><title>performancemixer:_phonesout:e&#45;&gt;particle:_in:w</title>
<path fill="none" stroke="black" stroke-width="2" d="M1869,-164.5C1869,-164.5 1917.64,-164.5 1939.3,-164.5"/>
<polygon fill="black" stroke="black" stroke-width="2" points="1939.5,-168 1949.5,-164.5 1939.5,-161 1939.5,-168"/>
</g>
<!-- qpas -->
<g id="node18" class="node"><title>qpas</title>
<path fill="none" stroke="black" d="M1968.5,-81.5C1968.5,-81.5 2096.5,-81.5 2096.5,-81.5 2102.5,-81.5 2108.5,-87.5 2108.5,-93.5 2108.5,-93.5 2108.5,-115.5 2108.5,-115.5 2108.5,-121.5 2102.5,-127.5 2096.5,-127.5 2096.5,-127.5 1968.5,-127.5 1968.5,-127.5 1962.5,-127.5 1956.5,-121.5 1956.5,-115.5 1956.5,-115.5 1956.5,-93.5 1956.5,-93.5 1956.5,-87.5 1962.5,-81.5 1968.5,-81.5"/>
<text text-anchor="middle" x="1978.5" y="-112.3" font-family="Times,serif" font-size="14.00">IN L</text>
<polyline fill="none" stroke="black" points="1956.5,-104.5 2000.5,-104.5 "/>
<text text-anchor="middle" x="1978.5" y="-89.3" font-family="Times,serif" font-size="14.00">IN R</text>
<polyline fill="none" stroke="black" points="2000.5,-81.5 2000.5,-127.5 "/>
<text text-anchor="middle" x="2027" y="-100.8" font-family="Times,serif" font-size="14.00">QPAS</text>
<polyline fill="none" stroke="black" points="2053.5,-81.5 2053.5,-127.5 "/>
<text text-anchor="middle" x="2081" y="-112.3" font-family="Times,serif" font-size="14.00">LPF L</text>
<polyline fill="none" stroke="black" points="2053.5,-104.5 2108.5,-104.5 "/>
<text text-anchor="middle" x="2081" y="-89.3" font-family="Times,serif" font-size="14.00">LPF R</text>
</g>
<!-- performancemixer&#45;&gt;qpas -->
<g id="edge31" class="edge"><title>performancemixer:_fxsendl:e&#45;&gt;qpas:_inl:w</title>
<path fill="none" stroke="black" stroke-width="2" d="M1869,-287.5C1869,-287.5 1905,-136.5 1905,-136.5 1905,-136.5 1931.09,-126.168 1945.76,-120.356"/>
<polygon fill="black" stroke="black" stroke-width="2" points="1947.49,-123.436 1955.5,-116.5 1944.91,-116.928 1947.49,-123.436"/>
</g>
<!-- performancemixer&#45;&gt;qpas -->
<g id="edge34" class="edge"><title>performancemixer:_fxsendr:e&#45;&gt;qpas:_inr:w</title>
<path fill="none" stroke="black" stroke-width="2" d="M1869,-226.5C1869,-226.5 1905,-136.5 1905,-136.5 1905,-136.5 1933.41,-111.75 1947.61,-99.375"/>
<polygon fill="black" stroke="black" stroke-width="2" points="1950.26,-101.708 1955.5,-92.5 1945.66,-96.4303 1950.26,-101.708"/>
</g>
<!-- prism -->
<g id="node17" class="node"><title>prism</title>
<path fill="none" stroke="black" d="M1278,-160.5C1278,-160.5 1415,-160.5 1415,-160.5 1421,-160.5 1427,-166.5 1427,-172.5 1427,-172.5 1427,-194.5 1427,-194.5 1427,-200.5 1421,-206.5 1415,-206.5 1415,-206.5 1278,-206.5 1278,-206.5 1272,-206.5 1266,-200.5 1266,-194.5 1266,-194.5 1266,-172.5 1266,-172.5 1266,-166.5 1272,-160.5 1278,-160.5"/>
<text text-anchor="middle" x="1288" y="-179.8" font-family="Times,serif" font-size="14.00">IN L</text>
<polyline fill="none" stroke="black" points="1310,-160.5 1310,-206.5 "/>
<text text-anchor="middle" x="1339" y="-179.8" font-family="Times,serif" font-size="14.00">PRISM</text>
<polyline fill="none" stroke="black" points="1368,-160.5 1368,-206.5 "/>
<text text-anchor="middle" x="1397.5" y="-191.3" font-family="Times,serif" font-size="14.00">OUT L</text>
<polyline fill="none" stroke="black" points="1368,-183.5 1427,-183.5 "/>
<text text-anchor="middle" x="1397.5" y="-168.3" font-family="Times,serif" font-size="14.00">OUT R</text>
</g>
<!-- prism&#45;&gt;performancemixer -->
<g id="edge8" class="edge"><title>prism:_outl:e&#45;&gt;performancemixer:_ch8l:w</title>
<path fill="none" stroke="black" stroke-width="2" d="M1428.5,-195.5C1428.5,-195.5 1481.73,-206.707 1504.19,-211.435"/>
<polygon fill="black" stroke="black" stroke-width="2" points="1503.49,-214.865 1514,-213.5 1504.94,-208.015 1503.49,-214.865"/>
</g>
<!-- prism&#45;&gt;performancemixer -->
<g id="edge9" class="edge"><title>prism:_outr:e&#45;&gt;performancemixer:_ch8r:w</title>
<path fill="none" stroke="black" stroke-width="2" d="M1428.5,-171.5C1428.5,-171.5 1481.73,-183.33 1504.19,-188.32"/>
<polygon fill="black" stroke="black" stroke-width="2" points="1503.48,-191.747 1514,-190.5 1505,-184.914 1503.48,-191.747"/>
</g>
<!-- qpas&#45;&gt;optomix -->
<g id="edge25" class="edge"><title>qpas:_lpfl:e&#45;&gt;optomix:_in1:w</title>
<path fill="none" stroke="black" stroke-width="2" d="M2109.5,-116.5C2109.5,-116.5 2162.82,-116.5 2185.74,-116.5"/>
<polygon fill="black" stroke="black" stroke-width="2" points="2186,-120 2196,-116.5 2186,-113 2186,-120"/>
</g>
<!-- qpas&#45;&gt;optomix -->
<g id="edge28" class="edge"><title>qpas:_lpfr:e&#45;&gt;optomix:_in2:w</title>
<path fill="none" stroke="black" stroke-width="2" d="M2109.5,-92.5C2109.5,-92.5 2162.82,-92.5 2185.74,-92.5"/>
<polygon fill="black" stroke="black" stroke-width="2" points="2186,-96.0001 2196,-92.5 2186,-89.0001 2186,-96.0001"/>
</g>
<!-- raspberrypi -->
<g id="node19" class="node"><title>raspberrypi</title>
<path fill="none" stroke="black" d="M12,-150.5C12,-150.5 167,-150.5 167,-150.5 173,-150.5 179,-156.5 179,-162.5 179,-162.5 179,-174.5 179,-174.5 179,-180.5 173,-186.5 167,-186.5 167,-186.5 12,-186.5 12,-186.5 6,-186.5 0,-180.5 0,-174.5 0,-174.5 0,-162.5 0,-162.5 0,-156.5 6,-150.5 12,-150.5"/>
<text text-anchor="middle" x="10" y="-164.8" font-family="Times,serif" font-size="14.00"> </text>
<polyline fill="none" stroke="black" points="20,-150.5 20,-186.5 "/>
<text text-anchor="middle" x="77.5" y="-164.8" font-family="Times,serif" font-size="14.00">RASPBERRY PI</text>
<polyline fill="none" stroke="black" points="135,-150.5 135,-186.5 "/>
<text text-anchor="middle" x="157" y="-164.8" font-family="Times,serif" font-size="14.00">USB</text>
</g>
<!-- raspberrypi&#45;&gt;es8 -->
<g id="edge39" class="edge"><title>raspberrypi:_usb:e&#45;&gt;es8:_usb:w</title>
<path fill="none" stroke="black" stroke-width="2" d="M179,-168.5C179,-168.5 194.137,-168.5 204.78,-168.5"/>
<polygon fill="black" stroke="black" stroke-width="2" points="205,-172 215,-168.5 205,-165 205,-172"/>
</g>
<!-- rnla&#45;&gt;h9 -->
<g id="edge22" class="edge"><title>rnla:_out:e&#45;&gt;h9:_in:w</title>
<path fill="none" stroke="black" stroke-width="2" d="M3256,-163.5C3256,-163.5 3271.14,-163.5 3281.78,-163.5"/>
<polygon fill="black" stroke="black" stroke-width="2" points="3282,-167 3292,-163.5 3282,-160 3282,-167"/>
</g>
<!-- tanh3 -->
<g id="node22" class="node"><title>tanh3</title>
<path fill="none" stroke="black" d="M1030,-134C1030,-134 1167,-134 1167,-134 1173,-134 1179,-140 1179,-146 1179,-146 1179,-191 1179,-191 1179,-197 1173,-203 1167,-203 1167,-203 1030,-203 1030,-203 1024,-203 1018,-197 1018,-191 1018,-191 1018,-146 1018,-146 1018,-140 1024,-134 1030,-134"/>
<text text-anchor="middle" x="1038.5" y="-187.8" font-family="Times,serif" font-size="14.00">IN 1</text>
<polyline fill="none" stroke="black" points="1018,-180 1059,-180 "/>
<text text-anchor="middle" x="1038.5" y="-164.8" font-family="Times,serif" font-size="14.00">IN 2</text>
<polyline fill="none" stroke="black" points="1018,-157 1059,-157 "/>
<text text-anchor="middle" x="1038.5" y="-141.8" font-family="Times,serif" font-size="14.00">IN 3</text>
<polyline fill="none" stroke="black" points="1059,-134 1059,-203 "/>
<text text-anchor="middle" x="1090.5" y="-164.8" font-family="Times,serif" font-size="14.00">TANH3</text>
<polyline fill="none" stroke="black" points="1122,-134 1122,-203 "/>
<text text-anchor="middle" x="1150.5" y="-187.8" font-family="Times,serif" font-size="14.00">OUT 1</text>
<polyline fill="none" stroke="black" points="1122,-180 1179,-180 "/>
<text text-anchor="middle" x="1150.5" y="-164.8" font-family="Times,serif" font-size="14.00">OUT 2</text>
<polyline fill="none" stroke="black" points="1122,-157 1179,-157 "/>
<text text-anchor="middle" x="1150.5" y="-141.8" font-family="Times,serif" font-size="14.00">OUT 3</text>
</g>
<!-- tanh3&#45;&gt;intrfxch1 -->
<g id="edge35" class="edge"><title>tanh3:_out2:e&#45;&gt;intrfxch1:_modsnd:w</title>
<path fill="none" stroke="black" stroke-width="2" d="M1179,-168.5C1179,-168.5 1197.6,-148.869 1208.06,-137.827"/>
<polygon fill="black" stroke="black" stroke-width="2" points="1210.66,-140.167 1215,-130.5 1205.58,-135.352 1210.66,-140.167"/>
</g>
<!-- tanh3&#45;&gt;intrfxch2 -->
<g id="edge36" class="edge"><title>tanh3:_out2:e&#45;&gt;intrfxch2:_modsnd:w</title>
<path fill="none" stroke="black" stroke-width="2" d="M1179,-168.5C1179,-168.5 1202.77,-100.504 1211.68,-75.0054"/>
<polygon fill="black" stroke="black" stroke-width="2" points="1215,-76.0948 1215,-65.5 1208.4,-73.7852 1215,-76.0948"/>
</g>
<!-- tanh3&#45;&gt;nebulae -->
<g id="edge32" class="edge"><title>tanh3:_out1:e&#45;&gt;nebulae:_inl:w</title>
<path fill="none" stroke="black" stroke-width="2" d="M1179,-191.5C1179,-191.5 1225.22,-227.342 1244.35,-242.182"/>
<polygon fill="black" stroke="black" stroke-width="2" points="1242.45,-245.138 1252.5,-248.5 1246.74,-239.606 1242.45,-245.138"/>
</g>
<!-- tanh3&#45;&gt;prism -->
<g id="edge33" class="edge"><title>tanh3:_out3:e&#45;&gt;prism:_inl:w</title>
<path fill="none" stroke="black" stroke-width="2" d="M1179,-145.5C1179,-145.5 1233.29,-169.63 1255.35,-179.433"/>
<polygon fill="black" stroke="black" stroke-width="2" points="1253.94,-182.637 1264.5,-183.5 1256.78,-176.24 1253.94,-182.637"/>
</g>
<!-- thyme&#45;&gt;elcapistan -->
<g id="edge23" class="edge"><title>thyme:_out:e&#45;&gt;elcapistan:_in:w</title>
<path fill="none" stroke="black" stroke-width="2" d="M2359.5,-164.5C2359.5,-164.5 2385.82,-163.989 2400.83,-163.698"/>
<polygon fill="black" stroke="black" stroke-width="2" points="2401.07,-167.194 2411,-163.5 2400.93,-160.195 2401.07,-167.194"/>
</g>
<!-- triplewaveshaperplus&#45;&gt;tanh3 -->
<g id="edge26" class="edge"><title>triplewaveshaperplus:_ch1out:e&#45;&gt;tanh3:_in1:w</title>
<path fill="none" stroke="black" stroke-width="2" d="M982,-191.5C982,-191.5 997.137,-191.5 1007.78,-191.5"/>
<polygon fill="black" stroke="black" stroke-width="2" points="1008,-195 1018,-191.5 1008,-188 1008,-195"/>
</g>
<!-- triplewaveshaperplus&#45;&gt;tanh3 -->
<g id="edge29" class="edge"><title>triplewaveshaperplus:_ch2out:e&#45;&gt;tanh3:_in2:w</title>
<path fill="none" stroke="black" stroke-width="2" d="M982,-168.5C982,-168.5 997.137,-168.5 1007.78,-168.5"/>
<polygon fill="black" stroke="black" stroke-width="2" points="1008,-172 1018,-168.5 1008,-165 1008,-172"/>
</g>
<!-- triplewaveshaperplus&#45;&gt;tanh3 -->
<g id="edge30" class="edge"><title>triplewaveshaperplus:_ch3out:e&#45;&gt;tanh3:_in3:w</title>
<path fill="none" stroke="black" stroke-width="2" d="M982,-145.5C982,-145.5 997.137,-145.5 1007.78,-145.5"/>
<polygon fill="black" stroke="black" stroke-width="2" points="1008,-149 1018,-145.5 1008,-142 1008,-149"/>
</g>
</g>
</svg>
