<?xml version="1.0" encoding="UTF-8" standalone="no"?>
<!DOCTYPE svg PUBLIC "-//W3C//DTD SVG 1.1//EN"
 "http://www.w3.org/Graphics/SVG/1.1/DTD/svg11.dtd">
<!-- Generated by graphviz version 6.0.2 (20221011.1828)
 -->
<!-- Title: G Pages: 1 -->
<svg width="1406pt" height="140pt"
 viewBox="0.00 0.00 1406.00 140.00" xmlns="http://www.w3.org/2000/svg" xmlns:xlink="http://www.w3.org/1999/xlink">
<g id="graph0" class="graph" transform="scale(1 1) rotate(0) translate(4 136)">
<title>G</title>
<polygon fill="white" stroke="none" points="-4,4 -4,-136 1402,-136 1402,4 -4,4"/>
<!-- context -->
<g id="node1" class="node">
<title>context</title>
<path fill="none" stroke="black" d="M851.5,-91.5C851.5,-91.5 1037.5,-91.5 1037.5,-91.5 1043.5,-91.5 1049.5,-97.5 1049.5,-103.5 1049.5,-103.5 1049.5,-115.5 1049.5,-115.5 1049.5,-121.5 1043.5,-127.5 1037.5,-127.5 1037.5,-127.5 851.5,-127.5 851.5,-127.5 845.5,-127.5 839.5,-121.5 839.5,-115.5 839.5,-115.5 839.5,-103.5 839.5,-103.5 839.5,-97.5 845.5,-91.5 851.5,-91.5"/>
<text text-anchor="middle" x="867.5" y="-105.8" font-family="Times New Roman,serif" font-size="14.00">IN L/R</text>
<polyline fill="none" stroke="black" points="895.5,-91.5 895.5,-127.5"/>
<text text-anchor="middle" x="937" y="-105.8" font-family="Times New Roman,serif" font-size="14.00">CONTEXT</text>
<polyline fill="none" stroke="black" points="978.5,-91.5 978.5,-127.5"/>
<text text-anchor="middle" x="1014" y="-105.8" font-family="Times New Roman,serif" font-size="14.00">OUT L/R</text>
</g>
<!-- mixer -->
<g id="node5" class="node">
<title>mixer</title>
<path fill="none" stroke="black" d="M1159,-52.5C1159,-52.5 1386,-52.5 1386,-52.5 1392,-52.5 1398,-58.5 1398,-64.5 1398,-64.5 1398,-86.5 1398,-86.5 1398,-92.5 1392,-98.5 1386,-98.5 1386,-98.5 1159,-98.5 1159,-98.5 1153,-98.5 1147,-92.5 1147,-86.5 1147,-86.5 1147,-64.5 1147,-64.5 1147,-58.5 1153,-52.5 1159,-52.5"/>
<text text-anchor="middle" x="1232" y="-83.3" font-family="Times New Roman,serif" font-size="14.00">DRONE CHANNEL L/R</text>
<polyline fill="none" stroke="black" points="1147,-75.5 1317,-75.5"/>
<text text-anchor="middle" x="1232" y="-60.3" font-family="Times New Roman,serif" font-size="14.00">MELODY CHANNEL L/R</text>
<polyline fill="none" stroke="black" points="1317,-52.5 1317,-98.5"/>
<text text-anchor="middle" x="1347.5" y="-71.8" font-family="Times New Roman,serif" font-size="14.00">MIXER</text>
<polyline fill="none" stroke="black" points="1378,-52.5 1378,-98.5"/>
<text text-anchor="middle" x="1388" y="-71.8" font-family="Times New Roman,serif" font-size="14.00"> </text>
</g>
<!-- context&#45;&gt;mixer -->
<g id="edge1" class="edge">
<title>context:e&#45;&gt;mixer:w</title>
<path fill="none" stroke="black" stroke-width="2" d="M1050.5,-109.5C1050.5,-109.5 1112.38,-95.39 1137.04,-89.77"/>
<polygon fill="black" stroke="black" stroke-width="2" points="1138.03,-93.14 1147,-87.5 1136.47,-86.31 1138.03,-93.14"/>
</g>
<!-- deluxememoryman -->
<g id="node2" class="node">
<title>deluxememoryman</title>
<path fill="none" stroke="black" d="M790,-19.5C790,-19.5 1099,-19.5 1099,-19.5 1105,-19.5 1111,-25.5 1111,-31.5 1111,-31.5 1111,-53.5 1111,-53.5 1111,-59.5 1105,-65.5 1099,-65.5 1099,-65.5 790,-65.5 790,-65.5 784,-65.5 778,-59.5 778,-53.5 778,-53.5 778,-31.5 778,-31.5 778,-25.5 784,-19.5 790,-19.5"/>
<text text-anchor="middle" x="799.5" y="-38.8" font-family="Times New Roman,serif" font-size="14.00">IN L</text>
<polyline fill="none" stroke="black" points="821,-19.5 821,-65.5"/>
<text text-anchor="middle" x="930.5" y="-50.3" font-family="Times New Roman,serif" font-size="14.00">DELUXE MEMORY MAN</text>
<polyline fill="none" stroke="black" points="821,-42.5 1040,-42.5"/>
<text text-anchor="middle" x="930.5" y="-27.3" font-family="Times New Roman,serif" font-size="14.00">Mode = Echo/300ms+mod (flanger)</text>
<polyline fill="none" stroke="black" points="1040,-19.5 1040,-65.5"/>
<text text-anchor="middle" x="1075.5" y="-38.8" font-family="Times New Roman,serif" font-size="14.00">OUT L/R</text>
</g>
<!-- deluxememoryman&#45;&gt;mixer -->
<g id="edge8" class="edge">
<title>deluxememoryman:e&#45;&gt;mixer:w</title>
<path fill="none" stroke="black" stroke-width="2" d="M1111,-42.5C1111,-42.5 1127.63,-52.2 1138.29,-58.42"/>
<polygon fill="black" stroke="black" stroke-width="2" points="1136.6,-61.48 1147,-63.5 1140.13,-55.44 1136.6,-61.48"/>
</g>
<!-- dvina -->
<g id="node3" class="node">
<title>dvina</title>
<path fill="none" stroke="black" d="M12,-57.5C12,-57.5 114,-57.5 114,-57.5 120,-57.5 126,-63.5 126,-69.5 126,-69.5 126,-81.5 126,-81.5 126,-87.5 120,-93.5 114,-93.5 114,-93.5 12,-93.5 12,-93.5 6,-93.5 0,-87.5 0,-81.5 0,-81.5 0,-69.5 0,-69.5 0,-63.5 6,-57.5 12,-57.5"/>
<text text-anchor="middle" x="10" y="-71.8" font-family="Times New Roman,serif" font-size="14.00"> </text>
<polyline fill="none" stroke="black" points="20,-57.5 20,-93.5"/>
<text text-anchor="middle" x="50" y="-71.8" font-family="Times New Roman,serif" font-size="14.00">DVINA</text>
<polyline fill="none" stroke="black" points="80,-57.5 80,-93.5"/>
<text text-anchor="middle" x="103" y="-71.8" font-family="Times New Roman,serif" font-size="14.00">OUT</text>
</g>
<!-- tuner -->
<g id="node8" class="node">
<title>tuner</title>
<path fill="none" stroke="black" d="M174,-57.5C174,-57.5 290,-57.5 290,-57.5 296,-57.5 302,-63.5 302,-69.5 302,-69.5 302,-81.5 302,-81.5 302,-87.5 296,-93.5 290,-93.5 290,-93.5 174,-93.5 174,-93.5 168,-93.5 162,-87.5 162,-81.5 162,-81.5 162,-69.5 162,-69.5 162,-63.5 168,-57.5 174,-57.5"/>
<text text-anchor="middle" x="177.5" y="-71.8" font-family="Times New Roman,serif" font-size="14.00">IN</text>
<polyline fill="none" stroke="black" points="193,-57.5 193,-93.5"/>
<text text-anchor="middle" x="224.5" y="-71.8" font-family="Times New Roman,serif" font-size="14.00">TUNER</text>
<polyline fill="none" stroke="black" points="256,-57.5 256,-93.5"/>
<text text-anchor="middle" x="279" y="-71.8" font-family="Times New Roman,serif" font-size="14.00">OUT</text>
</g>
<!-- dvina&#45;&gt;tuner -->
<g id="edge2" class="edge">
<title>dvina:e&#45;&gt;tuner:w</title>
<path fill="none" stroke="black" stroke-width="2" d="M126,-75.5C126,-75.5 141.14,-75.5 151.78,-75.5"/>
<polygon fill="black" stroke="black" stroke-width="2" points="152,-79 162,-75.5 152,-72 152,-79"/>
</g>
<!-- microcosm -->
<g id="node4" class="node">
<title>microcosm</title>
<path fill="none" stroke="black" d="M548,-95.5C548,-95.5 730,-95.5 730,-95.5 736,-95.5 742,-101.5 742,-107.5 742,-107.5 742,-119.5 742,-119.5 742,-125.5 736,-131.5 730,-131.5 730,-131.5 548,-131.5 548,-131.5 542,-131.5 536,-125.5 536,-119.5 536,-119.5 536,-107.5 536,-107.5 536,-101.5 542,-95.5 548,-95.5"/>
<text text-anchor="middle" x="551.5" y="-109.8" font-family="Times New Roman,serif" font-size="14.00">IN</text>
<polyline fill="none" stroke="black" points="567,-95.5 567,-131.5"/>
<text text-anchor="middle" x="619" y="-109.8" font-family="Times New Roman,serif" font-size="14.00">MICROCOSM</text>
<polyline fill="none" stroke="black" points="671,-95.5 671,-131.5"/>
<text text-anchor="middle" x="706.5" y="-109.8" font-family="Times New Roman,serif" font-size="14.00">OUT L/R</text>
</g>
<!-- microcosm&#45;&gt;context -->
<g id="edge7" class="edge">
<title>microcosm:e&#45;&gt;context:w</title>
<path fill="none" stroke="black" stroke-width="2" d="M742,-113.5C742,-113.5 803.28,-110.96 828.17,-109.93"/>
<polygon fill="black" stroke="black" stroke-width="2" points="828.65,-113.41 838.5,-109.5 828.36,-106.42 828.65,-113.41"/>
</g>
<!-- particle -->
<g id="node6" class="node">
<title>particle</title>
<path fill="none" stroke="black" d="M549.5,-0.5C549.5,-0.5 728.5,-0.5 728.5,-0.5 734.5,-0.5 740.5,-6.5 740.5,-12.5 740.5,-12.5 740.5,-64.5 740.5,-64.5 740.5,-70.5 734.5,-76.5 728.5,-76.5 728.5,-76.5 549.5,-76.5 549.5,-76.5 543.5,-76.5 537.5,-70.5 537.5,-64.5 537.5,-64.5 537.5,-12.5 537.5,-12.5 537.5,-6.5 543.5,-0.5 549.5,-0.5"/>
<text text-anchor="middle" x="553" y="-34.8" font-family="Times New Roman,serif" font-size="14.00">IN</text>
<polyline fill="none" stroke="black" points="568.5,-0.5 568.5,-76.5"/>
<text text-anchor="middle" x="631.5" y="-61.3" font-family="Times New Roman,serif" font-size="14.00">PARTICLE</text>
<polyline fill="none" stroke="black" points="568.5,-53.5 694.5,-53.5"/>
<text text-anchor="middle" x="631.5" y="-38.3" font-family="Times New Roman,serif" font-size="14.00">Mode = Pitch/Dens</text>
<text text-anchor="middle" x="631.5" y="-23.3" font-family="Times New Roman,serif" font-size="14.00">Param = 100%</text>
<text text-anchor="middle" x="631.5" y="-8.3" font-family="Times New Roman,serif" font-size="14.00">Pitch = &#45;0% (1 oct)</text>
<polyline fill="none" stroke="black" points="694.5,-0.5 694.5,-76.5"/>
<text text-anchor="middle" x="717.5" y="-34.8" font-family="Times New Roman,serif" font-size="14.00">OUT</text>
</g>
<!-- particle&#45;&gt;deluxememoryman -->
<g id="edge6" class="edge">
<title>particle:e&#45;&gt;deluxememoryman:w</title>
<path fill="none" stroke="black" stroke-width="2" d="M742,-38.5C742,-38.5 757.14,-40.18 767.78,-41.36"/>
<polygon fill="black" stroke="black" stroke-width="2" points="767.67,-44.87 778,-42.5 768.45,-37.92 767.67,-44.87"/>
</g>
<!-- plus -->
<g id="node7" class="node">
<title>plus</title>
<path fill="none" stroke="black" d="M350,-52.5C350,-52.5 488,-52.5 488,-52.5 494,-52.5 500,-58.5 500,-64.5 500,-64.5 500,-86.5 500,-86.5 500,-92.5 494,-98.5 488,-98.5 488,-98.5 350,-98.5 350,-98.5 344,-98.5 338,-92.5 338,-86.5 338,-86.5 338,-64.5 338,-64.5 338,-58.5 344,-52.5 350,-52.5"/>
<text text-anchor="middle" x="353.5" y="-71.8" font-family="Times New Roman,serif" font-size="14.00">IN</text>
<polyline fill="none" stroke="black" points="369,-52.5 369,-98.5"/>
<text text-anchor="middle" x="394.5" y="-71.8" font-family="Times New Roman,serif" font-size="14.00">PLUS</text>
<polyline fill="none" stroke="black" points="420,-52.5 420,-98.5"/>
<text text-anchor="middle" x="460" y="-83.3" font-family="Times New Roman,serif" font-size="14.00">DRY OUT</text>
<polyline fill="none" stroke="black" points="420,-75.5 500,-75.5"/>
<text text-anchor="middle" x="460" y="-60.3" font-family="Times New Roman,serif" font-size="14.00">WET OUT</text>
</g>
<!-- plus&#45;&gt;microcosm -->
<g id="edge3" class="edge">
<title>plus:e&#45;&gt;microcosm:w</title>
<path fill="none" stroke="black" stroke-width="2" d="M500,-87.5C500,-87.5 517.02,-99.79 527.65,-107.47"/>
<polygon fill="black" stroke="black" stroke-width="2" points="525.84,-110.48 536,-113.5 529.94,-104.81 525.84,-110.48"/>
</g>
<!-- plus&#45;&gt;particle -->
<g id="edge4" class="edge">
<title>plus:e&#45;&gt;particle:w</title>
<path fill="none" stroke="black" stroke-width="2" d="M500,-63.5C500,-63.5 517.02,-51.68 527.65,-44.3"/>
<polygon fill="black" stroke="black" stroke-width="2" points="529.78,-47.08 536,-38.5 525.79,-41.33 529.78,-47.08"/>
</g>
<!-- tuner&#45;&gt;plus -->
<g id="edge5" class="edge">
<title>tuner:e&#45;&gt;plus:w</title>
<path fill="none" stroke="black" stroke-width="2" d="M302,-75.5C302,-75.5 317.14,-75.5 327.78,-75.5"/>
<polygon fill="black" stroke="black" stroke-width="2" points="328,-79 338,-75.5 328,-72 328,-79"/>
</g>
</g>
</svg>
