<?xml version="1.0" encoding="UTF-8" standalone="no"?>
<!DOCTYPE svg PUBLIC "-//W3C//DTD SVG 1.1//EN"
 "http://www.w3.org/Graphics/SVG/1.1/DTD/svg11.dtd">
<!-- Generated by graphviz version 6.0.2 (20221011.1828)
 -->
<!-- Title: G Pages: 1 -->
<svg width="1359pt" height="100pt"
 viewBox="0.00 0.00 1359.00 100.00" xmlns="http://www.w3.org/2000/svg" xmlns:xlink="http://www.w3.org/1999/xlink">
<g id="graph0" class="graph" transform="scale(1 1) rotate(0) translate(4 96)">
<title>G</title>
<polygon fill="white" stroke="none" points="-4,4 -4,-96 1355,-96 1355,4 -4,4"/>
<!-- context -->
<g id="node1" class="node">
<title>context</title>
<path fill="none" stroke="black" d="M828,-55.5C828,-55.5 1014,-55.5 1014,-55.5 1020,-55.5 1026,-61.5 1026,-67.5 1026,-67.5 1026,-79.5 1026,-79.5 1026,-85.5 1020,-91.5 1014,-91.5 1014,-91.5 828,-91.5 828,-91.5 822,-91.5 816,-85.5 816,-79.5 816,-79.5 816,-67.5 816,-67.5 816,-61.5 822,-55.5 828,-55.5"/>
<text text-anchor="middle" x="844" y="-69.8" font-family="Times New Roman,serif" font-size="14.00">IN L/R</text>
<polyline fill="none" stroke="black" points="872,-55.5 872,-91.5"/>
<text text-anchor="middle" x="913.5" y="-69.8" font-family="Times New Roman,serif" font-size="14.00">CONTEXT</text>
<polyline fill="none" stroke="black" points="955,-55.5 955,-91.5"/>
<text text-anchor="middle" x="990.5" y="-69.8" font-family="Times New Roman,serif" font-size="14.00">OUT L/R</text>
</g>
<!-- mixer -->
<g id="node5" class="node">
<title>mixer</title>
<path fill="none" stroke="black" d="M1112,-22.5C1112,-22.5 1339,-22.5 1339,-22.5 1345,-22.5 1351,-28.5 1351,-34.5 1351,-34.5 1351,-56.5 1351,-56.5 1351,-62.5 1345,-68.5 1339,-68.5 1339,-68.5 1112,-68.5 1112,-68.5 1106,-68.5 1100,-62.5 1100,-56.5 1100,-56.5 1100,-34.5 1100,-34.5 1100,-28.5 1106,-22.5 1112,-22.5"/>
<text text-anchor="middle" x="1185" y="-53.3" font-family="Times New Roman,serif" font-size="14.00">DRONE CHANNEL L/R</text>
<polyline fill="none" stroke="black" points="1100,-45.5 1270,-45.5"/>
<text text-anchor="middle" x="1185" y="-30.3" font-family="Times New Roman,serif" font-size="14.00">MELODY CHANNEL L/R</text>
<polyline fill="none" stroke="black" points="1270,-22.5 1270,-68.5"/>
<text text-anchor="middle" x="1300.5" y="-41.8" font-family="Times New Roman,serif" font-size="14.00">MIXER</text>
<polyline fill="none" stroke="black" points="1331,-22.5 1331,-68.5"/>
<text text-anchor="middle" x="1341" y="-41.8" font-family="Times New Roman,serif" font-size="14.00"> </text>
</g>
<!-- context&#45;&gt;mixer -->
<g id="edge1" class="edge">
<title>context:e&#45;&gt;mixer:w</title>
<path fill="none" stroke="black" stroke-width="2" d="M1027,-73.5C1027,-73.5 1070.23,-64.03 1090.15,-59.66"/>
<polygon fill="black" stroke="black" stroke-width="2" points="1090.98,-63.06 1100,-57.5 1089.48,-56.22 1090.98,-63.06"/>
</g>
<!-- deluxememoryman -->
<g id="node2" class="node">
<title>deluxememoryman</title>
<path fill="none" stroke="black" d="M790,-0.5C790,-0.5 1052,-0.5 1052,-0.5 1058,-0.5 1064,-6.5 1064,-12.5 1064,-12.5 1064,-24.5 1064,-24.5 1064,-30.5 1058,-36.5 1052,-36.5 1052,-36.5 790,-36.5 790,-36.5 784,-36.5 778,-30.5 778,-24.5 778,-24.5 778,-12.5 778,-12.5 778,-6.5 784,-0.5 790,-0.5"/>
<text text-anchor="middle" x="799.5" y="-14.8" font-family="Times New Roman,serif" font-size="14.00">IN L</text>
<polyline fill="none" stroke="black" points="821,-0.5 821,-36.5"/>
<text text-anchor="middle" x="907" y="-14.8" font-family="Times New Roman,serif" font-size="14.00">DELUXE MEMORY MAN</text>
<polyline fill="none" stroke="black" points="993,-0.5 993,-36.5"/>
<text text-anchor="middle" x="1028.5" y="-14.8" font-family="Times New Roman,serif" font-size="14.00">OUT L/R</text>
</g>
<!-- deluxememoryman&#45;&gt;mixer -->
<g id="edge8" class="edge">
<title>deluxememoryman:e&#45;&gt;mixer:w</title>
<path fill="none" stroke="black" stroke-width="2" d="M1064,-18.5C1064,-18.5 1079.88,-25.11 1090.54,-29.56"/>
<polygon fill="black" stroke="black" stroke-width="2" points="1089.42,-32.88 1100,-33.5 1092.12,-26.42 1089.42,-32.88"/>
</g>
<!-- dvina -->
<g id="node3" class="node">
<title>dvina</title>
<path fill="none" stroke="black" d="M12,-27.5C12,-27.5 114,-27.5 114,-27.5 120,-27.5 126,-33.5 126,-39.5 126,-39.5 126,-51.5 126,-51.5 126,-57.5 120,-63.5 114,-63.5 114,-63.5 12,-63.5 12,-63.5 6,-63.5 0,-57.5 0,-51.5 0,-51.5 0,-39.5 0,-39.5 0,-33.5 6,-27.5 12,-27.5"/>
<text text-anchor="middle" x="10" y="-41.8" font-family="Times New Roman,serif" font-size="14.00"> </text>
<polyline fill="none" stroke="black" points="20,-27.5 20,-63.5"/>
<text text-anchor="middle" x="50" y="-41.8" font-family="Times New Roman,serif" font-size="14.00">DVINA</text>
<polyline fill="none" stroke="black" points="80,-27.5 80,-63.5"/>
<text text-anchor="middle" x="103" y="-41.8" font-family="Times New Roman,serif" font-size="14.00">OUT</text>
</g>
<!-- tuner -->
<g id="node8" class="node">
<title>tuner</title>
<path fill="none" stroke="black" d="M174,-27.5C174,-27.5 290,-27.5 290,-27.5 296,-27.5 302,-33.5 302,-39.5 302,-39.5 302,-51.5 302,-51.5 302,-57.5 296,-63.5 290,-63.5 290,-63.5 174,-63.5 174,-63.5 168,-63.5 162,-57.5 162,-51.5 162,-51.5 162,-39.5 162,-39.5 162,-33.5 168,-27.5 174,-27.5"/>
<text text-anchor="middle" x="177.5" y="-41.8" font-family="Times New Roman,serif" font-size="14.00">IN</text>
<polyline fill="none" stroke="black" points="193,-27.5 193,-63.5"/>
<text text-anchor="middle" x="224.5" y="-41.8" font-family="Times New Roman,serif" font-size="14.00">TUNER</text>
<polyline fill="none" stroke="black" points="256,-27.5 256,-63.5"/>
<text text-anchor="middle" x="279" y="-41.8" font-family="Times New Roman,serif" font-size="14.00">OUT</text>
</g>
<!-- dvina&#45;&gt;tuner -->
<g id="edge2" class="edge">
<title>dvina:e&#45;&gt;tuner:w</title>
<path fill="none" stroke="black" stroke-width="2" d="M126,-45.5C126,-45.5 141.14,-45.5 151.78,-45.5"/>
<polygon fill="black" stroke="black" stroke-width="2" points="152,-49 162,-45.5 152,-42 152,-49"/>
</g>
<!-- microcosm -->
<g id="node4" class="node">
<title>microcosm</title>
<path fill="none" stroke="black" d="M548,-55.5C548,-55.5 730,-55.5 730,-55.5 736,-55.5 742,-61.5 742,-67.5 742,-67.5 742,-79.5 742,-79.5 742,-85.5 736,-91.5 730,-91.5 730,-91.5 548,-91.5 548,-91.5 542,-91.5 536,-85.5 536,-79.5 536,-79.5 536,-67.5 536,-67.5 536,-61.5 542,-55.5 548,-55.5"/>
<text text-anchor="middle" x="551.5" y="-69.8" font-family="Times New Roman,serif" font-size="14.00">IN</text>
<polyline fill="none" stroke="black" points="567,-55.5 567,-91.5"/>
<text text-anchor="middle" x="619" y="-69.8" font-family="Times New Roman,serif" font-size="14.00">MICROCOSM</text>
<polyline fill="none" stroke="black" points="671,-55.5 671,-91.5"/>
<text text-anchor="middle" x="706.5" y="-69.8" font-family="Times New Roman,serif" font-size="14.00">OUT L/R</text>
</g>
<!-- microcosm&#45;&gt;context -->
<g id="edge7" class="edge">
<title>microcosm:e&#45;&gt;context:w</title>
<path fill="none" stroke="black" stroke-width="2" d="M742,-73.5C742,-73.5 784.79,-73.5 804.85,-73.5"/>
<polygon fill="black" stroke="black" stroke-width="2" points="805,-77 815,-73.5 805,-70 805,-77"/>
</g>
<!-- particle -->
<g id="node6" class="node">
<title>particle</title>
<path fill="none" stroke="black" d="M570.5,-0.5C570.5,-0.5 707.5,-0.5 707.5,-0.5 713.5,-0.5 719.5,-6.5 719.5,-12.5 719.5,-12.5 719.5,-24.5 719.5,-24.5 719.5,-30.5 713.5,-36.5 707.5,-36.5 707.5,-36.5 570.5,-36.5 570.5,-36.5 564.5,-36.5 558.5,-30.5 558.5,-24.5 558.5,-24.5 558.5,-12.5 558.5,-12.5 558.5,-6.5 564.5,-0.5 570.5,-0.5"/>
<text text-anchor="middle" x="574" y="-14.8" font-family="Times New Roman,serif" font-size="14.00">IN</text>
<polyline fill="none" stroke="black" points="589.5,-0.5 589.5,-36.5"/>
<text text-anchor="middle" x="631.5" y="-14.8" font-family="Times New Roman,serif" font-size="14.00">PARTICLE</text>
<polyline fill="none" stroke="black" points="673.5,-0.5 673.5,-36.5"/>
<text text-anchor="middle" x="696.5" y="-14.8" font-family="Times New Roman,serif" font-size="14.00">OUT</text>
</g>
<!-- particle&#45;&gt;deluxememoryman -->
<g id="edge6" class="edge">
<title>particle:e&#45;&gt;deluxememoryman:w</title>
<path fill="none" stroke="black" stroke-width="2" d="M721,-18.5C721,-18.5 751.41,-18.5 767.81,-18.5"/>
<polygon fill="black" stroke="black" stroke-width="2" points="768,-22 778,-18.5 768,-15 768,-22"/>
</g>
<!-- plus -->
<g id="node7" class="node">
<title>plus</title>
<path fill="none" stroke="black" d="M350,-22.5C350,-22.5 488,-22.5 488,-22.5 494,-22.5 500,-28.5 500,-34.5 500,-34.5 500,-56.5 500,-56.5 500,-62.5 494,-68.5 488,-68.5 488,-68.5 350,-68.5 350,-68.5 344,-68.5 338,-62.5 338,-56.5 338,-56.5 338,-34.5 338,-34.5 338,-28.5 344,-22.5 350,-22.5"/>
<text text-anchor="middle" x="353.5" y="-41.8" font-family="Times New Roman,serif" font-size="14.00">IN</text>
<polyline fill="none" stroke="black" points="369,-22.5 369,-68.5"/>
<text text-anchor="middle" x="394.5" y="-41.8" font-family="Times New Roman,serif" font-size="14.00">PLUS</text>
<polyline fill="none" stroke="black" points="420,-22.5 420,-68.5"/>
<text text-anchor="middle" x="460" y="-53.3" font-family="Times New Roman,serif" font-size="14.00">DRY OUT</text>
<polyline fill="none" stroke="black" points="420,-45.5 500,-45.5"/>
<text text-anchor="middle" x="460" y="-30.3" font-family="Times New Roman,serif" font-size="14.00">WET OUT</text>
</g>
<!-- plus&#45;&gt;microcosm -->
<g id="edge3" class="edge">
<title>plus:e&#45;&gt;microcosm:w</title>
<path fill="none" stroke="black" stroke-width="2" d="M500,-57.5C500,-57.5 515.88,-64.56 526.54,-69.3"/>
<polygon fill="black" stroke="black" stroke-width="2" points="525.44,-72.64 536,-73.5 528.28,-66.24 525.44,-72.64"/>
</g>
<!-- plus&#45;&gt;particle -->
<g id="edge4" class="edge">
<title>plus:e&#45;&gt;particle:w</title>
<path fill="none" stroke="black" stroke-width="2" d="M500,-33.5C500,-33.5 530.74,-25.41 547.07,-21.11"/>
<polygon fill="black" stroke="black" stroke-width="2" points="548.22,-24.43 557,-18.5 546.44,-17.66 548.22,-24.43"/>
</g>
<!-- tuner&#45;&gt;plus -->
<g id="edge5" class="edge">
<title>tuner:e&#45;&gt;plus:w</title>
<path fill="none" stroke="black" stroke-width="2" d="M302,-45.5C302,-45.5 317.14,-45.5 327.78,-45.5"/>
<polygon fill="black" stroke="black" stroke-width="2" points="328,-49 338,-45.5 328,-42 328,-49"/>
</g>
</g>
</svg>
